Printline-Thin.ufo
<glyph name="exclam" format="2">
  <advance width="118"/>
  <unicode hex="0021"/>
  <outline>
    <contour>
      <point x="43" y="195" type="line"/>
      <point x="76" y="195" type="line"/>
      <point x="85" y="692" type="line"/>
      <point x="34" y="692" type="line"/>
    </contour>
    <contour>
      <point x="59" y="0" type="qcurve" smooth="yes"/>
      <point x="71.2105" y="0"/>
      <point x="88" y="14.9038"/>
      <point x="88" y="30.5" type="qcurve" smooth="yes"/>
      <point x="88" y="46.0962"/>
      <point x="71.2105" y="61"/>
      <point x="59" y="61" type="qcurve" smooth="yes"/>
      <point x="46.7895" y="61"/>
      <point x="30" y="46.0962"/>
      <point x="30" y="30.5" type="qcurve" smooth="yes"/>
      <point x="30" y="14.9038"/>
      <point x="46.7895" y="0"/>
    </contour>
  </outline>
</glyph>
<glyph name="dollar" format="2">
  <advance width="352"/>
  <unicode hex="0024"/>
  <anchor x="196" y="700" name="top"/>
  <outline>
    <contour>
      <point x="166.256" y="-81" type="line"/>
      <point x="203.256" y="-81" type="line"/>
      <point x="203.256" y="0" type="line"/>
      <point x="166.256" y="0" type="line"/>
    </contour>
    <contour>
      <point x="166.256" y="708" type="line"/>
      <point x="203.256" y="708" type="line"/>
      <point x="203.256" y="789" type="line"/>
      <point x="166.256" y="789" type="line"/>
    </contour>
    <contour>
      <point x="183.722" y="-15" type="qcurve" smooth="yes"/>
      <point x="249.88" y="-15"/>
      <point x="322" y="83.2674"/>
      <point x="322" y="146.489" type="qcurve" smooth="yes"/>
      <point x="322" y="262.843"/>
      <point x="198.467" y="364.2" type="qcurve" smooth="yes"/>
      <point x="79" y="462.22"/>
      <point x="79" y="573.294" type="qcurve" smooth="yes"/>
      <point x="79" y="627.89"/>
      <point x="139.526" y="686"/>
      <point x="178.586" y="686" type="qcurve" smooth="yes"/>
      <point x="223.256" y="686"/>
      <point x="271" y="613.679"/>
      <point x="271" y="484" type="qcurve"/>
      <point x="307" y="484" type="line"/>
      <point x="307" y="591"/>
      <point x="246.211" y="715"/>
      <point x="178.37" y="715" type="qcurve" smooth="yes"/>
      <point x="120.289" y="715"/>
      <point x="43" y="624.413"/>
      <point x="43" y="561.077" type="qcurve" smooth="yes"/>
      <point x="43" y="447.567"/>
      <point x="169.84" y="334.775" type="qcurve" smooth="yes"/>
      <point x="286" y="231.48"/>
      <point x="286" y="136.572" type="qcurve" smooth="yes"/>
      <point x="286" y="91.5035"/>
      <point x="233.421" y="14"/>
      <point x="184.459" y="14" type="qcurve" smooth="yes"/>
      <point x="126.881" y="14"/>
      <point x="66" y="124.68"/>
      <point x="66" y="251" type="qcurve"/>
      <point x="30" y="251" type="line"/>
      <point x="30" y="122"/>
      <point x="107.398" y="-15"/>
    </contour>
  </outline>
</glyph>
<glyph name="percent" format="2">
  <advance width="648"/>
  <unicode hex="0025"/>
  <outline>
    <contour>
      <point x="498.923" y="-15" type="qcurve" smooth="yes"/>
      <point x="553.039" y="-15"/>
      <point x="608" y="112"/>
      <point x="608" y="210" type="qcurve" smooth="yes"/>
      <point x="608" y="308"/>
      <point x="553.039" y="435"/>
      <point x="498.923" y="435" type="qcurve" smooth="yes"/>
      <point x="443.961" y="435"/>
      <point x="389" y="308"/>
      <point x="389" y="210" type="qcurve" smooth="yes"/>
      <point x="389" y="112"/>
      <point x="443.961" y="-15"/>
    </contour>
    <contour>
      <point x="499.48" y="14" type="qcurve" smooth="yes"/>
      <point x="458.32" y="14"/>
      <point x="425" y="128.11"/>
      <point x="425" y="210" type="qcurve" smooth="yes"/>
      <point x="425" y="291.89"/>
      <point x="458.32" y="406"/>
      <point x="499.48" y="406" type="qcurve" smooth="yes"/>
      <point x="540.64" y="406"/>
      <point x="572" y="293.233"/>
      <point x="572" y="210" type="qcurve" smooth="yes"/>
      <point x="572" y="126.767"/>
      <point x="540.64" y="14"/>
    </contour>
    <contour>
      <point x="149.923" y="305" type="qcurve" smooth="yes"/>
      <point x="204.039" y="305"/>
      <point x="259" y="432"/>
      <point x="259" y="530" type="qcurve" smooth="yes"/>
      <point x="259" y="628"/>
      <point x="204.039" y="755"/>
      <point x="149.923" y="755" type="qcurve" smooth="yes"/>
      <point x="94.9614" y="755"/>
      <point x="40" y="628"/>
      <point x="40" y="530" type="qcurve" smooth="yes"/>
      <point x="40" y="432"/>
      <point x="94.9614" y="305"/>
    </contour>
    <contour>
      <point x="152.507" y="334" type="qcurve" smooth="yes"/>
      <point x="110.227" y="334"/>
      <point x="76" y="448.11"/>
      <point x="76" y="530" type="qcurve" smooth="yes"/>
      <point x="76" y="611.89"/>
      <point x="110.227" y="726"/>
      <point x="152.507" y="726" type="qcurve" smooth="yes"/>
      <point x="194.787" y="726"/>
      <point x="227" y="613.233"/>
      <point x="227" y="530" type="qcurve" smooth="yes"/>
      <point x="227" y="446.767"/>
      <point x="194.787" y="334"/>
    </contour>
    <contour>
      <point x="191" y="-15" type="line"/>
      <point x="227" y="-15" type="line"/>
      <point x="457" y="750" type="line"/>
      <point x="420" y="750" type="line"/>
    </contour>
  </outline>
</glyph>
<glyph name="ampersand" format="2">
  <advance width="401"/>
  <unicode hex="0026"/>
  <outline>
    <contour>
      <point x="76" y="548.456" type="qcurve" smooth="yes"/>
      <point x="76" y="469.578"/>
      <point x="164.033" y="304.918"/>
      <point x="197.869" y="242" type="qcurve"/>
      <point x="328.012" y="0" type="line"/>
      <point x="364" y="0" type="line"/>
      <point x="175.66" y="362.077" type="line" smooth="yes"/>
      <point x="113.485" y="481.606"/>
      <point x="111.8" y="548.053" type="qcurve" smooth="yes"/>
      <point x="108.553" y="675.997"/>
      <point x="188.806" y="675.997" type="qcurve" smooth="yes"/>
      <point x="270" y="675.997"/>
      <point x="270" y="549.481" type="qcurve" smooth="yes"/>
      <point x="270" y="470.754"/>
      <point x="204.414" y="376.919"/>
      <point x="146.028" y="332.439" type="qcurve" smooth="yes"/>
      <point x="94.7349" y="293.362"/>
      <point x="30" y="211.607"/>
      <point x="30" y="153.36" type="qcurve" smooth="yes"/>
      <point x="30" y="90.6427"/>
      <point x="103.32" y="-15"/>
      <point x="168.768" y="-15" type="qcurve" smooth="yes"/>
      <point x="260.955" y="-15"/>
      <point x="371" y="202.355"/>
      <point x="371" y="341" type="qcurve"/>
      <point x="335" y="341" type="line"/>
      <point x="335" y="162.73"/>
      <point x="220.718" y="14"/>
      <point x="168.364" y="14" type="qcurve"/>
      <point x="120.735" y="14"/>
      <point x="66" y="97.5442"/>
      <point x="66" y="149.284" type="qcurve" smooth="yes"/>
      <point x="66" y="206.569"/>
      <point x="130.514" y="272.704"/>
      <point x="166.085" y="305.067" type="qcurve" smooth="yes"/>
      <point x="194.427" y="330.853"/>
      <point x="242.499" y="379.815"/>
      <point x="306" y="474.412"/>
      <point x="306" y="543.314" type="qcurve" smooth="yes"/>
      <point x="306" y="609.617"/>
      <point x="250.688" y="705"/>
      <point x="191.551" y="705" type="qcurve" smooth="yes"/>
      <point x="132.146" y="705"/>
      <point x="76" y="611.962"/>
    </contour>
  </outline>
</glyph>
<glyph name="asterisk" format="2">
  <advance width="343"/>
  <unicode hex="002A"/>
  <outline>
    <contour>
      <point x="134.164" y="453.822" type="line"/>
      <point x="154.283" y="578.238" type="line"/>
      <point x="58.4475" y="493.631" type="line"/>
      <point x="30.5043" y="551.508" type="line"/>
      <point x="152" y="601.515" type="line"/>
      <point x="30.6519" y="640.836" type="line"/>
      <point x="58.4475" y="698.407" type="line"/>
      <point x="154.283" y="613.8" type="line"/>
      <point x="134.164" y="738.217" type="line"/>
      <point x="199.034" y="738.217" type="line"/>
      <point x="179.05" y="614.636" type="line"/>
      <point x="284.674" y="698.652" type="line"/>
      <point x="312.588" y="640.836" type="line"/>
      <point x="186.657" y="601.515" type="line"/>
      <point x="312.736" y="551.508" type="line"/>
      <point x="284.674" y="493.386" type="line"/>
      <point x="179.05" y="577.402" type="line"/>
      <point x="199.034" y="453.822" type="line"/>
    </contour>
  </outline>
</glyph>
<glyph name="plus" format="2">
  <advance width="349"/>
  <unicode hex="002B"/>
  <outline>
    <contour>
      <point x="157" y="137" type="line"/>
      <point x="192" y="137" type="line"/>
      <point x="192" y="292" type="line"/>
      <point x="349" y="292" type="line"/>
      <point x="349" y="327" type="line"/>
      <point x="192" y="327" type="line"/>
      <point x="192" y="483" type="line"/>
      <point x="157" y="483" type="line"/>
      <point x="157" y="327" type="line"/>
      <point x="0" y="327" type="line"/>
      <point x="0" y="292" type="line"/>
      <point x="157" y="292" type="line"/>
    </contour>
  </outline>
</glyph>
<glyph name="hyphen" format="2">
  <advance width="263"/>
  <unicode hex="002D"/>
  <outline>
    <contour>
      <point x="30" y="310" type="line"/>
      <point x="233" y="310" type="line"/>
      <point x="233" y="339" type="line"/>
      <point x="30" y="339" type="line"/>
    </contour>
  </outline>
</glyph>
<glyph name="period" format="2">
  <advance width="118"/>
  <unicode hex="002E"/>
  <outline>
    <contour>
      <point x="59" y="0" type="qcurve" smooth="yes"/>
      <point x="71.2105" y="0"/>
      <point x="88" y="14.9038"/>
      <point x="88" y="30.5" type="qcurve" smooth="yes"/>
      <point x="88" y="46.0962"/>
      <point x="71.2105" y="61"/>
      <point x="59" y="61" type="qcurve" smooth="yes"/>
      <point x="46.7895" y="61"/>
      <point x="30" y="46.0962"/>
      <point x="30" y="30.5" type="qcurve" smooth="yes"/>
      <point x="30" y="14.9038"/>
      <point x="46.7895" y="0"/>
    </contour>
  </outline>
</glyph>
<glyph name="four" format="2">
  <advance width="344"/>
  <unicode hex="0034"/>
  <outline>
    <contour>
      <point x="219" y="0" type="line"/>
      <point x="255" y="0" type="line"/>
      <point x="255" y="185" type="line"/>
      <point x="339" y="185" type="line"/>
      <point x="339" y="214" type="line"/>
      <point x="255" y="214" type="line"/>
      <point x="255" y="700" type="line"/>
      <point x="199" y="700" type="line"/>
      <point x="15" y="214" type="line"/>
      <point x="15" y="185" type="line"/>
      <point x="219" y="185" type="line"/>
    </contour>
    <contour>
      <point x="51" y="214" type="line"/>
      <point x="219" y="671" type="line"/>
      <point x="219" y="214" type="line"/>
    </contour>
  </outline>
</glyph>
<glyph name="seven" format="2">
  <advance width="285"/>
  <unicode hex="0037"/>
  <outline>
    <contour>
      <point x="15" y="700" type="line"/>
      <point x="15" y="671" type="line"/>
      <point x="235" y="671" type="line"/>
      <point x="92" y="0" type="line"/>
      <point x="126" y="0" type="line"/>
      <point x="268" y="671" type="line"/>
      <point x="268" y="700" type="line"/>
    </contour>
  </outline>
</glyph>
<glyph name="eight" format="2">
  <advance width="301"/>
  <unicode hex="0038"/>
  <outline>
    <contour>
      <point x="281" y="181.415" type="qcurve" smooth="yes"/>
      <point x="281" y="238.577"/>
      <point x="245.427" y="322.061"/>
      <point x="205" y="353" type="qcurve"/>
      <point x="239.224" y="383.184"/>
      <point x="272" y="474.706"/>
      <point x="272" y="526.341" type="qcurve" smooth="yes"/>
      <point x="272" y="601.477"/>
      <point x="204.466" y="715"/>
      <point x="149.129" y="715" type="qcurve" smooth="yes"/>
      <point x="94.1143" y="715"/>
      <point x="29" y="603.218"/>
      <point x="29" y="528.802" type="qcurve" smooth="yes"/>
      <point x="29" y="475.951"/>
      <point x="62.5538" y="382.429"/>
      <point x="96" y="353" type="qcurve"/>
      <point x="53.2402" y="320.552"/>
      <point x="20" y="239.067"/>
      <point x="20" y="182.843" type="qcurve" smooth="yes"/>
      <point x="20" y="103"/>
      <point x="85.6691" y="-15"/>
      <point x="150.074" y="-15" type="qcurve" smooth="yes"/>
      <point x="215.331" y="-15"/>
      <point x="281" y="103"/>
    </contour>
    <contour>
      <point x="151.131" y="339" type="qcurve" smooth="yes"/>
      <point x="199.795" y="339"/>
      <point x="245" y="238.801"/>
      <point x="245" y="172.696" type="qcurve" smooth="yes"/>
      <point x="245" y="105.701"/>
      <point x="197.274" y="14"/>
      <point x="149.775" y="14" type="qcurve" smooth="yes"/>
      <point x="102.287" y="14"/>
      <point x="56" y="107.05"/>
      <point x="56" y="172.751" type="qcurve" smooth="yes"/>
      <point x="56" y="239.16"/>
      <point x="102.465" y="339"/>
    </contour>
    <contour>
      <point x="151.626" y="368" type="qcurve" smooth="yes"/>
      <point x="107.906" y="368"/>
      <point x="65" y="474.042"/>
      <point x="65" y="536.603" type="qcurve" smooth="yes"/>
      <point x="65" y="599.396"/>
      <point x="108.885" y="686"/>
      <point x="150.5" y="686" type="qcurve" smooth="yes"/>
      <point x="192.115" y="686"/>
      <point x="236" y="599.396"/>
      <point x="236" y="534.909" type="qcurve" smooth="yes"/>
      <point x="236" y="472.299"/>
      <point x="195.354" y="368"/>
    </contour>
  </outline>
</glyph>
<glyph name="colon" format="2">
  <advance width="118"/>
  <unicode hex="003A"/>
  <outline>
    <contour>
      <point x="59" y="0" type="qcurve" smooth="yes"/>
      <point x="71.2105" y="0"/>
      <point x="88" y="14.9038"/>
      <point x="88" y="30.5" type="qcurve" smooth="yes"/>
      <point x="88" y="46.0962"/>
      <point x="71.2105" y="61"/>
      <point x="59" y="61" type="qcurve" smooth="yes"/>
      <point x="46.7895" y="61"/>
      <point x="30" y="46.0962"/>
      <point x="30" y="30.5" type="qcurve" smooth="yes"/>
      <point x="30" y="14.9038"/>
      <point x="46.7895" y="0"/>
    </contour>
    <contour>
      <point x="59" y="323" type="qcurve" smooth="yes"/>
      <point x="71.2105" y="323"/>
      <point x="88" y="337.904"/>
      <point x="88" y="353.5" type="qcurve" smooth="yes"/>
      <point x="88" y="369.096"/>
      <point x="71.2105" y="384"/>
      <point x="59" y="384" type="qcurve" smooth="yes"/>
      <point x="46.7895" y="384"/>
      <point x="30" y="369.096"/>
      <point x="30" y="353.5" type="qcurve" smooth="yes"/>
      <point x="30" y="337.904"/>
      <point x="46.7895" y="323"/>
    </contour>
  </outline>
</glyph>
<glyph name="greater" format="2">
  <advance width="292"/>
  <unicode hex="003E"/>
  <outline>
    <contour>
      <point x="15" y="482" type="line"/>
      <point x="241" y="265" type="line"/>
      <point x="15" y="58" type="line"/>
      <point x="51" y="58" type="line"/>
      <point x="277" y="265" type="line"/>
      <point x="51" y="482" type="line"/>
    </contour>
  </outline>
</glyph>
<glyph name="question" format="2">
  <advance width="293"/>
  <unicode hex="003F"/>
  <outline>
    <contour>
      <point x="128" y="203" type="line"/>
      <point x="128" y="255.134"/>
      <point x="153.284" y="329.116"/>
      <point x="188.444" y="372.456" type="qcurve" smooth="yes"/>
      <point x="219.807" y="411.116"/>
      <point x="263" y="498.115"/>
      <point x="263" y="558.703" type="qcurve" smooth="yes"/>
      <point x="263" y="627.684"/>
      <point x="207.367" y="712"/>
      <point x="150.122" y="712" type="qcurve" smooth="yes"/>
      <point x="83.5159" y="712"/>
      <point x="30" y="597.704"/>
      <point x="30" y="490" type="qcurve"/>
      <point x="66" y="490" type="line"/>
      <point x="66" y="573.803"/>
      <point x="91.8624" y="683"/>
      <point x="149.102" y="683" type="qcurve" smooth="yes"/>
      <point x="197.237" y="683"/>
      <point x="227.785" y="599.391"/>
      <point x="226.967" y="557.991" type="qcurve" smooth="yes"/>
      <point x="225.253" y="471.225"/>
      <point x="157.17" y="382.361" type="qcurve" smooth="yes"/>
      <point x="127.521" y="343.661"/>
      <point x="92" y="263.01"/>
      <point x="92" y="203" type="qcurve"/>
    </contour>
    <contour>
      <point x="110" y="0" type="qcurve" smooth="yes"/>
      <point x="122.211" y="0"/>
      <point x="139" y="14.9038"/>
      <point x="139" y="30.5" type="qcurve" smooth="yes"/>
      <point x="139" y="46.0962"/>
      <point x="122.211" y="61"/>
      <point x="110" y="61" type="qcurve" smooth="yes"/>
      <point x="97.7895" y="61"/>
      <point x="81" y="46.0962"/>
      <point x="81" y="30.5" type="qcurve" smooth="yes"/>
      <point x="81" y="14.9038"/>
      <point x="97.7895" y="0"/>
    </contour>
  </outline>
  <guideline angle="0" x="0" y="811"/>
  <guideline angle="0" x="0" y="811"/>
</glyph>
<glyph name="at" format="2">
  <advance width="530"/>
  <unicode hex="0040"/>
  <outline>
    <contour>
      <point x="382.391" y="0" type="qcurve"/>
      <point x="350" y="0" type="line"/>
      <point x="350" y="44" type="line"/>
      <point x="323.406" y="-6"/>
      <point x="269.069" y="-6" type="qcurve" smooth="yes"/>
      <point x="141" y="-6"/>
      <point x="141" y="252.134" type="qcurve" smooth="yes"/>
      <point x="141" y="506"/>
      <point x="265.343" y="506" type="qcurve" smooth="yes"/>
      <point x="317.745" y="506"/>
      <point x="340" y="457.986" type="qcurve"/>
      <point x="363" y="500.086" type="line"/>
      <point x="384" y="500.086" type="line"/>
      <point x="384" y="32.0162" type="line"/>
      <point x="497" y="32.0162"/>
      <point x="497" y="260.517" type="qcurve" smooth="yes"/>
      <point x="497" y="625"/>
      <point x="277.638" y="625" type="qcurve" smooth="yes"/>
      <point x="33" y="625"/>
      <point x="33" y="246.625" type="qcurve" smooth="yes"/>
      <point x="33" y="-128"/>
      <point x="272.748" y="-128" type="qcurve"/>
      <point x="272.748" y="-160" type="line"/>
      <point x="0" y="-160"/>
      <point x="0" y="223.756" type="qcurve" smooth="yes"/>
      <point x="0" y="657"/>
      <point x="281.823" y="657" type="qcurve" smooth="yes"/>
      <point x="530" y="657"/>
      <point x="530" y="264.087" type="qcurve" smooth="yes"/>
      <point x="530" y="0"/>
    </contour>
    <contour>
      <point x="272.471" y="477" type="qcurve" smooth="yes"/>
      <point x="177" y="477"/>
      <point x="177" y="251.425" type="qcurve" smooth="yes"/>
      <point x="177" y="26"/>
      <point x="273.288" y="26" type="qcurve" smooth="yes"/>
      <point x="348" y="26"/>
      <point x="348" y="155.205" type="qcurve"/>
      <point x="348" y="341.7" type="line"/>
      <point x="348" y="477"/>
    </contour>
  </outline>
</glyph>
<glyph name="A" format="2">
  <advance width="283"/>
  <unicode hex="0041"/>
  <anchor x="141" y="700" name="top"/>
  <outline>
    <contour>
      <point x="268" y="0" type="line"/>
      <point x="169.017" y="700" type="line"/>
      <point x="112.983" y="700" type="line"/>
      <point x="15" y="0" type="line"/>
      <point x="51" y="0" type="line"/>
      <point x="79" y="209" type="line"/>
      <point x="204" y="209" type="line"/>
      <point x="232" y="0" type="line"/>
    </contour>
    <contour>
      <point x="200" y="238" type="line"/>
      <point x="83" y="238" type="line"/>
      <point x="141" y="671" type="line"/>
    </contour>
  </outline>
</glyph>
<glyph name="B" format="2">
  <advance width="334"/>
  <unicode hex="0042"/>
  <outline>
    <contour>
      <point x="40" y="0" type="line"/>
      <point x="154.312" y="0" type="line"/>
      <point x="230.229" y="0"/>
      <point x="314" y="112.693"/>
      <point x="314" y="192.849" type="qcurve" smooth="yes"/>
      <point x="314" y="313.538"/>
      <point x="215" y="367" type="qcurve"/>
      <point x="294" y="419.217"/>
      <point x="294" y="525.533" type="qcurve" smooth="yes"/>
      <point x="294" y="593.681"/>
      <point x="227.476" y="700"/>
      <point x="141.946" y="700" type="qcurve"/>
      <point x="40" y="700" type="line"/>
    </contour>
    <contour>
      <point x="76" y="381" type="line"/>
      <point x="76" y="671" type="line"/>
      <point x="132.689" y="671" type="line" smooth="yes"/>
      <point x="202.803" y="671"/>
      <point x="258" y="583.009"/>
      <point x="258" y="520.6" type="qcurve" smooth="yes"/>
      <point x="258" y="461.556"/>
      <point x="207.279" y="381"/>
      <point x="140.148" y="381" type="qcurve" smooth="yes"/>
    </contour>
    <contour>
      <point x="76" y="29" type="line"/>
      <point x="76" y="352" type="line"/>
      <point x="128.634" y="352" type="line" smooth="yes"/>
      <point x="195.493" y="352"/>
      <point x="278" y="272.185"/>
      <point x="278" y="186.185" type="qcurve" smooth="yes"/>
      <point x="278" y="108.815"/>
      <point x="211.141" y="29"/>
      <point x="151.394" y="29" type="qcurve" smooth="yes"/>
    </contour>
  </outline>
</glyph>
<glyph name="E" format="2">
  <advance width="252"/>
  <unicode hex="0045"/>
  <anchor x="143.5" y="700" name="top"/>
  <anchor x="209" y="0" name="ogonek"/>
  <anchor x="155.5" y="0" name="ced"/>
  <outline>
    <contour>
      <point x="40" y="0" type="line"/>
      <point x="247" y="0" type="line"/>
      <point x="247" y="29" type="line"/>
      <point x="76" y="29" type="line"/>
      <point x="76" y="342" type="line"/>
      <point x="200" y="342" type="line"/>
      <point x="200" y="371" type="line"/>
      <point x="76" y="371" type="line"/>
      <point x="76" y="671" type="line"/>
      <point x="240" y="671" type="line"/>
      <point x="240" y="700" type="line"/>
      <point x="40" y="700" type="line"/>
    </contour>
  </outline>
</glyph>
<glyph name="G" format="2">
  <advance width="318"/>
  <unicode hex="0047"/>
  <anchor x="159" y="700" name="top"/>
  <outline>
    <contour>
      <point x="167.846" y="-15" type="qcurve" smooth="yes"/>
      <point x="237.805" y="-15"/>
      <point x="262" y="79" type="qcurve"/>
      <point x="270" y="0" type="line"/>
      <point x="298" y="0" type="line"/>
      <point x="298" y="372" type="line"/>
      <point x="149" y="372" type="line"/>
      <point x="149" y="343" type="line"/>
      <point x="262" y="343" type="line"/>
      <point x="262" y="149.077"/>
      <point x="206.973" y="14"/>
      <point x="162.601" y="14" type="qcurve" smooth="yes"/>
      <point x="106.795" y="14"/>
      <point x="56" y="220.348"/>
      <point x="56" y="371.992" type="qcurve" smooth="yes"/>
      <point x="56" y="523.067"/>
      <point x="104.512" y="692"/>
      <point x="161" y="692" type="qcurve" smooth="yes"/>
      <point x="210.455" y="692"/>
      <point x="255" y="558.64"/>
      <point x="255" y="430" type="qcurve"/>
      <point x="291" y="430" type="line"/>
      <point x="291" y="571"/>
      <point x="231.698" y="721"/>
      <point x="159.323" y="721" type="qcurve" smooth="yes"/>
      <point x="78.9042" y="721"/>
      <point x="20" y="532"/>
      <point x="20" y="365.55" type="qcurve" smooth="yes"/>
      <point x="20" y="177"/>
      <point x="96.278" y="-15"/>
    </contour>
  </outline>
</glyph>
<glyph name="H" format="2">
  <advance width="327"/>
  <unicode hex="0048"/>
  <outline>
    <contour>
      <point x="251" y="0" type="line"/>
      <point x="287" y="0" type="line"/>
      <point x="287" y="700" type="line"/>
      <point x="251" y="700" type="line"/>
      <point x="251" y="372" type="line"/>
      <point x="76" y="372" type="line"/>
      <point x="76" y="700" type="line"/>
      <point x="40" y="700" type="line"/>
      <point x="40" y="0" type="line"/>
      <point x="76" y="0" type="line"/>
      <point x="76" y="343" type="line"/>
      <point x="251" y="343" type="line"/>
    </contour>
  </outline>
</glyph>
<glyph name="J" format="2">
  <advance width="183"/>
  <unicode hex="004A"/>
  <anchor x="125" y="700" name="top"/>
  <outline>
    <contour>
      <point x="55.6503" y="-15" type="line" smooth="yes"/>
      <point x="143" y="-15"/>
      <point x="143" y="180" type="qcurve" smooth="yes"/>
      <point x="143" y="700" type="line"/>
      <point x="107" y="700" type="line"/>
      <point x="107" y="170.419" type="line" smooth="yes"/>
      <point x="107" y="14"/>
      <point x="50" y="14" type="qcurve" smooth="yes"/>
      <point x="30" y="14" type="line"/>
      <point x="30" y="-15" type="line"/>
    </contour>
  </outline>
</glyph>
<glyph name="K" format="2">
  <advance width="291"/>
  <unicode hex="004B"/>
  <outline>
    <contour>
      <point x="240" y="0" type="line"/>
      <point x="276" y="0" type="line"/>
      <point x="119" y="392" type="line"/>
      <point x="269" y="700" type="line"/>
      <point x="233" y="700" type="line"/>
      <point x="76" y="386" type="line"/>
      <point x="76" y="700" type="line"/>
      <point x="40" y="700" type="line"/>
      <point x="40" y="0" type="line"/>
      <point x="76" y="0" type="line"/>
      <point x="76" y="323.257" type="line"/>
      <point x="93" y="360" type="line"/>
    </contour>
  </outline>
</glyph>
<glyph name="M" format="2">
  <advance width="442"/>
  <unicode hex="004D"/>
  <outline>
    <contour>
      <point x="365" y="0.35" type="line"/>
      <point x="401.4" y="0.35" type="line"/>
      <point x="401.4" y="700" type="line"/>
      <point x="339" y="700" type="line"/>
      <point x="219" y="29" type="line"/>
      <point x="98" y="700" type="line"/>
      <point x="40.45" y="700" type="line"/>
      <point x="40.45" y="0.349976" type="line"/>
      <point x="75.8" y="0.349976" type="line"/>
      <point x="75.8" y="632.632" type="line"/>
      <point x="183" y="0" type="line"/>
      <point x="255" y="0" type="line"/>
      <point x="365" y="632.632" type="line"/>
    </contour>
  </outline>
</glyph>
<glyph name="N" format="2">
  <advance width="351"/>
  <unicode hex="004E"/>
  <anchor x="175.5" y="700" name="top"/>
  <outline>
    <contour>
      <point x="40" y="0" type="line"/>
      <point x="76" y="0" type="line"/>
      <point x="76" y="655.443" type="line"/>
      <point x="246.712" y="0" type="line"/>
      <point x="311" y="0" type="line"/>
      <point x="311" y="700" type="line"/>
      <point x="275" y="700" type="line"/>
      <point x="275" y="64.5571" type="line"/>
      <point x="92.2881" y="700" type="line"/>
      <point x="40" y="700" type="line"/>
    </contour>
  </outline>
</glyph>
<glyph name="O" format="2">
  <advance width="327"/>
  <unicode hex="004F"/>
  <anchor x="163.5" y="700" name="top"/>
  <outline>
    <contour>
      <point x="163.923" y="-15" type="qcurve" smooth="yes"/>
      <point x="235.038" y="-15"/>
      <point x="307" y="192"/>
      <point x="307" y="347.154" type="qcurve" smooth="yes"/>
      <point x="307" y="514"/>
      <point x="223.316" y="721"/>
      <point x="163.923" y="721" type="qcurve" smooth="yes"/>
      <point x="104.53" y="721"/>
      <point x="20" y="514"/>
      <point x="20" y="347.217" type="qcurve" smooth="yes"/>
      <point x="20" y="192"/>
      <point x="92.8083" y="-15"/>
    </contour>
    <contour>
      <point x="164.251" y="14" type="qcurve" smooth="yes"/>
      <point x="104.548" y="14"/>
      <point x="56" y="210.144"/>
      <point x="56" y="346.689" type="qcurve" smooth="yes"/>
      <point x="56" y="495.856"/>
      <point x="114.335" y="692"/>
      <point x="164.197" y="692" type="qcurve" smooth="yes"/>
      <point x="213.963" y="692"/>
      <point x="271" y="496.99"/>
      <point x="271" y="346.414" type="qcurve" smooth="yes"/>
      <point x="271" y="209.01"/>
      <point x="223.839" y="14"/>
    </contour>
  </outline>
</glyph>
<glyph name="P" format="2">
  <advance width="314"/>
  <unicode hex="0050"/>
  <outline>
    <contour>
      <point x="40" y="0" type="line"/>
      <point x="76" y="0" type="line"/>
      <point x="76" y="312" type="line"/>
      <point x="117.923" y="312" type="line" smooth="yes"/>
      <point x="203.865" y="312"/>
      <point x="294" y="425.37"/>
      <point x="294" y="509.821" type="qcurve" smooth="yes"/>
      <point x="294" y="582.72"/>
      <point x="223.524" y="700"/>
      <point x="139.224" y="700" type="qcurve" smooth="yes"/>
      <point x="40" y="700" type="line"/>
    </contour>
    <contour>
      <point x="76" y="341" type="line"/>
      <point x="76" y="671" type="line"/>
      <point x="127.607" y="671" type="line" smooth="yes"/>
      <point x="206.836" y="671"/>
      <point x="258" y="569.069"/>
      <point x="258" y="505.181" type="qcurve" smooth="yes"/>
      <point x="258" y="436.56"/>
      <point x="199.82" y="341"/>
      <point x="125.23" y="341" type="qcurve" smooth="yes"/>
    </contour>
  </outline>
</glyph>
<glyph name="S" format="2">
  <advance width="332"/>
  <unicode hex="0053"/>
  <anchor x="168.37" y="700" name="top"/>
  <outline>
    <contour>
      <point x="173.722" y="-5" type="qcurve" smooth="yes"/>
      <point x="239.88" y="-5"/>
      <point x="312" y="91.8655"/>
      <point x="312" y="154.185" type="qcurve" smooth="yes"/>
      <point x="312" y="268.88"/>
      <point x="188.467" y="368.791" type="qcurve" smooth="yes"/>
      <point x="69" y="465.412"/>
      <point x="69" y="574.902" type="qcurve" smooth="yes"/>
      <point x="69" y="628.719"/>
      <point x="129.526" y="686"/>
      <point x="168.586" y="686" type="qcurve" smooth="yes"/>
      <point x="213.256" y="686"/>
      <point x="261" y="613.679"/>
      <point x="261" y="484" type="qcurve"/>
      <point x="297" y="484" type="line"/>
      <point x="297" y="591"/>
      <point x="236.211" y="715"/>
      <point x="168.37" y="715" type="qcurve" smooth="yes"/>
      <point x="110.289" y="715"/>
      <point x="33" y="625.705"/>
      <point x="33" y="563.273" type="qcurve" smooth="yes"/>
      <point x="33" y="451.382"/>
      <point x="159.84" y="340.2" type="qcurve" smooth="yes"/>
      <point x="276" y="238.378"/>
      <point x="276" y="144.823" type="qcurve" smooth="yes"/>
      <point x="276" y="100.398"/>
      <point x="223.421" y="24"/>
      <point x="174.459" y="24" type="qcurve" smooth="yes"/>
      <point x="116.881" y="24"/>
      <point x="56" y="130.01"/>
      <point x="56" y="251" type="qcurve"/>
      <point x="20" y="251" type="line"/>
      <point x="20" y="126.85"/>
      <point x="97.3976" y="-5"/>
    </contour>
  </outline>
</glyph>
<glyph name="T" format="2">
  <advance width="308"/>
  <unicode hex="0054"/>
  <anchor x="153" y="700" name="top"/>
  <anchor x="158" y="0.4974" name="ced"/>
  <outline>
    <contour>
      <point x="135" y="0" type="line"/>
      <point x="171" y="0" type="line"/>
      <point x="171" y="671" type="line"/>
      <point x="291" y="671" type="line"/>
      <point x="291" y="700" type="line"/>
      <point x="15" y="700" type="line"/>
      <point x="15" y="671" type="line"/>
      <point x="135" y="671" type="line"/>
    </contour>
  </outline>
</glyph>
<glyph name="U" format="2">
  <advance width="357"/>
  <unicode hex="0055"/>
  <anchor x="178.5" y="700" name="top"/>
  <anchor x="178.5" y="0.298" name="ced"/>
  <anchor x="207" y="0" name="ogonek"/>
  <outline>
    <contour>
      <point x="40" y="160" type="line"/>
      <point x="40" y="73.1902"/>
      <point x="114.032" y="-21"/>
      <point x="178.985" y="-21" type="qcurve" smooth="yes"/>
      <point x="244.23" y="-21"/>
      <point x="317" y="73.1902"/>
      <point x="317" y="160" type="qcurve"/>
      <point x="317" y="700" type="line"/>
      <point x="281" y="700" type="line"/>
      <point x="281" y="160" type="line" smooth="yes"/>
      <point x="281" y="7.98685"/>
      <point x="179.006" y="7.99125" type="qcurve" smooth="yes"/>
      <point x="76" y="7.98685"/>
      <point x="76" y="160" type="qcurve" smooth="yes"/>
      <point x="76" y="700" type="line"/>
      <point x="40" y="700" type="line"/>
    </contour>
  </outline>
</glyph>
<glyph name="W" format="2">
  <advance width="510"/>
  <unicode hex="0057"/>
  <anchor x="255" y="700" name="top"/>
  <outline>
    <contour>
      <point x="234.695" y="700" type="line"/>
      <point x="146" y="31" type="line"/>
      <point x="51" y="700" type="line"/>
      <point x="15" y="700" type="line"/>
      <point x="110" y="0" type="line"/>
      <point x="185" y="0" type="line"/>
      <point x="256" y="651" type="line"/>
      <point x="326" y="0" type="line"/>
      <point x="400" y="0" type="line"/>
      <point x="495" y="700" type="line"/>
      <point x="459" y="700" type="line"/>
      <point x="364" y="31" type="line"/>
      <point x="275.305" y="700" type="line"/>
    </contour>
  </outline>
</glyph>
<glyph name="Z" format="2">
  <advance width="341"/>
  <unicode hex="005A"/>
  <anchor x="170.5" y="700" name="top"/>
  <anchor x="279" y="0" name="ogonek"/>
  <outline>
    <contour>
      <point x="15" y="0" type="line"/>
      <point x="326" y="0" type="line"/>
      <point x="326" y="29" type="line"/>
      <point x="51" y="29" type="line"/>
      <point x="326" y="671" type="line"/>
      <point x="326" y="700" type="line"/>
      <point x="35" y="700" type="line"/>
      <point x="35" y="671" type="line"/>
      <point x="290" y="671" type="line"/>
      <point x="15" y="29" type="line"/>
    </contour>
  </outline>
</glyph>
<glyph name="bracketleft" format="2">
  <advance width="201"/>
  <unicode hex="005B"/>
  <outline>
    <contour>
      <point x="30" y="-49" type="line"/>
      <point x="170" y="-49" type="line"/>
      <point x="170" y="-20" type="line"/>
      <point x="66" y="-20" type="line"/>
      <point x="66" y="721" type="line"/>
      <point x="171" y="721" type="line"/>
      <point x="171" y="750" type="line"/>
      <point x="30" y="750" type="line"/>
    </contour>
  </outline>
</glyph>
<glyph name="bracketright" format="2">
  <advance width="201"/>
  <unicode hex="005D"/>
  <outline>
    <contour>
      <point x="171" y="-49" type="line"/>
      <point x="171" y="750" type="line"/>
      <point x="30" y="750" type="line"/>
      <point x="30" y="721" type="line"/>
      <point x="135" y="721" type="line"/>
      <point x="135" y="-20" type="line"/>
      <point x="31" y="-20" type="line"/>
      <point x="31" y="-49" type="line"/>
    </contour>
  </outline>
</glyph>
<glyph name="grave" format="2">
  <advance width="259"/>
  <unicode hex="0060"/>
  <anchor x="132" y="700" name="_top"/>
  <outline>
    <contour>
      <point x="133.221" y="750" type="line"/>
      <point x="156.399" y="750" type="line"/>
      <point x="109.834" y="890" type="line"/>
      <point x="74.1913" y="890" type="line"/>
    </contour>
  </outline>
</glyph>
<glyph name="a" format="2">
  <advance width="303"/>
  <unicode hex="0061"/>
  <anchor x="162" y="500" name="top"/>
  <anchor x="253" y="0" name="ogonek"/>
  <outline>
    <contour>
      <point x="132.611" y="-5" type="qcurve" smooth="yes"/>
      <point x="164.156" y="-5"/>
      <point x="220.812" y="22"/>
      <point x="237" y="54" type="qcurve"/>
      <point x="237" y="0" type="line"/>
      <point x="273" y="0" type="line"/>
      <point x="273" y="337" type="line" smooth="yes"/>
      <point x="273" y="429"/>
      <point x="222.604" y="515"/>
      <point x="161.849" y="515" type="qcurve" smooth="yes"/>
      <point x="101.726" y="515"/>
      <point x="37" y="431"/>
      <point x="37" y="330" type="qcurve"/>
      <point x="73" y="330" type="line"/>
      <point x="73" y="413.379"/>
      <point x="119.588" y="486"/>
      <point x="164.179" y="486" type="qcurve" smooth="yes"/>
      <point x="209.491" y="486"/>
      <point x="237" y="414"/>
      <point x="237" y="326" type="qcurve"/>
      <point x="126.584" y="272"/>
      <point x="15" y="184"/>
      <point x="15" y="122.21" type="qcurve" smooth="yes"/>
      <point x="15" y="75"/>
      <point x="78.5938" y="-5"/>
    </contour>
    <contour>
      <point x="135.528" y="24" type="qcurve" smooth="yes"/>
      <point x="94.0413" y="24"/>
      <point x="51" y="88.1755"/>
      <point x="51" y="120.871" type="qcurve" smooth="yes"/>
      <point x="51" y="175.825"/>
      <point x="175.512" y="263.547"/>
      <point x="237" y="297" type="qcurve"/>
      <point x="237" y="151.787" type="line" smooth="yes"/>
      <point x="237" y="84.9894"/>
      <point x="175.512" y="24"/>
    </contour>
  </outline>
</glyph>
<glyph name="b" format="2">
  <advance width="300"/>
  <unicode hex="0062"/>
  <outline>
    <contour>
      <point x="30" y="0" type="line"/>
      <point x="66" y="0" type="line"/>
      <point x="66" y="37.9352" type="line"/>
      <point x="98.4833" y="-5"/>
      <point x="150.377" y="-5" type="qcurve" smooth="yes"/>
      <point x="215" y="-5"/>
      <point x="285" y="115.574"/>
      <point x="285" y="246.878" type="qcurve" smooth="yes"/>
      <point x="285" y="368.398"/>
      <point x="222.321" y="515"/>
      <point x="154.989" y="515" type="qcurve" smooth="yes"/>
      <point x="123.08" y="515"/>
      <point x="82.7143" y="483.04"/>
      <point x="66" y="454" type="qcurve"/>
      <point x="66" y="700" type="line"/>
      <point x="30" y="700" type="line"/>
    </contour>
    <contour>
      <point x="151.488" y="24" type="qcurve" smooth="yes"/>
      <point x="111.876" y="24"/>
      <point x="66" y="95.3871"/>
      <point x="66" y="155.966" type="qcurve" smooth="yes"/>
      <point x="66" y="292.33" type="line" smooth="yes"/>
      <point x="66" y="486.001"/>
      <point x="152.24" y="486.001" type="qcurve" smooth="yes"/>
      <point x="246.589" y="486.001"/>
      <point x="248.806" y="257" type="qcurve" smooth="yes"/>
      <point x="251.07" y="24"/>
    </contour>
  </outline>
</glyph>
<glyph name="j" format="2">
  <advance width="126"/>
  <unicode hex="006A"/>
  <outline>
    <contour>
      <point x="-15" y="-250" type="line"/>
      <point x="67" y="-250"/>
      <point x="67" y="-65" type="qcurve" smooth="yes"/>
      <point x="67" y="500" type="line"/>
      <point x="31" y="500" type="line"/>
      <point x="31" y="-70.5359" type="line" smooth="yes"/>
      <point x="31" y="-221.11"/>
      <point x="-15" y="-221" type="qcurve"/>
    </contour>
    <contour>
      <point x="49" y="639" type="qcurve" smooth="yes"/>
      <point x="61.2105" y="639"/>
      <point x="78" y="653.904"/>
      <point x="78" y="669.5" type="qcurve" smooth="yes"/>
      <point x="78" y="685.096"/>
      <point x="61.2105" y="700"/>
      <point x="49" y="700" type="qcurve" smooth="yes"/>
      <point x="36.7895" y="700"/>
      <point x="20" y="685.096"/>
      <point x="20" y="669.5" type="qcurve" smooth="yes"/>
      <point x="20" y="653.904"/>
      <point x="36.7895" y="639"/>
    </contour>
  </outline>
</glyph>
<glyph name="m" format="2">
  <advance width="458"/>
  <unicode hex="006D"/>
  <outline>
    <contour>
      <point x="211" y="0" type="line"/>
      <point x="247" y="0" type="line"/>
      <point x="247" y="264.853" type="line" smooth="yes"/>
      <point x="247" y="396.035"/>
      <point x="281.989" y="485.994"/>
      <point x="322.899" y="486" type="qcurve" smooth="yes"/>
      <point x="365.49" y="486.007"/>
      <point x="392" y="388.61"/>
      <point x="392" y="235.355" type="qcurve" smooth="yes"/>
      <point x="392" y="0" type="line"/>
      <point x="428" y="0" type="line"/>
      <point x="428" y="299" type="line"/>
      <point x="428" y="432"/>
      <point x="373.455" y="515"/>
      <point x="326.445" y="515" type="qcurve" smooth="yes"/>
      <point x="294.667" y="515"/>
      <point x="244.162" y="477"/>
      <point x="228" y="439" type="qcurve"/>
      <point x="209.788" y="515"/>
      <point x="153.115" y="515" type="qcurve" smooth="yes"/>
      <point x="128.194" y="515"/>
      <point x="86.2581" y="485.873"/>
      <point x="72" y="456" type="qcurve"/>
      <point x="62" y="500" type="line"/>
      <point x="30" y="500" type="line"/>
      <point x="30" y="0" type="line"/>
      <point x="66" y="0" type="line"/>
      <point x="66" y="235.307" type="line" smooth="yes"/>
      <point x="66" y="391.814"/>
      <point x="104.639" y="485.954"/>
      <point x="142.259" y="486" type="qcurve" smooth="yes"/>
      <point x="179.455" y="486.045"/>
      <point x="211" y="394.488"/>
      <point x="211" y="267.149" type="qcurve" smooth="yes"/>
    </contour>
  </outline>
</glyph>
<glyph name="n" format="2">
  <advance width="291"/>
  <unicode hex="006E"/>
  <anchor x="150.5" y="500" name="top"/>
  <outline>
    <contour>
      <point x="30" y="0" type="line"/>
      <point x="66" y="0" type="line"/>
      <point x="66" y="234.283" type="line" smooth="yes"/>
      <point x="66" y="400.108"/>
      <point x="105.09" y="486"/>
      <point x="150.104" y="486" type="qcurve" smooth="yes"/>
      <point x="201.451" y="486"/>
      <point x="225" y="386.839"/>
      <point x="225" y="234.283" type="qcurve" smooth="yes"/>
      <point x="225" y="0" type="line"/>
      <point x="261" y="0" type="line"/>
      <point x="261" y="299" type="line" smooth="yes"/>
      <point x="261" y="432"/>
      <point x="208.364" y="515"/>
      <point x="161.579" y="515" type="qcurve" smooth="yes"/>
      <point x="132.641" y="515"/>
      <point x="83.6986" y="485.873"/>
      <point x="68" y="456" type="qcurve"/>
      <point x="62" y="500" type="line"/>
      <point x="30" y="500" type="line"/>
    </contour>
  </outline>
</glyph>
<glyph name="o" format="2">
  <advance width="291"/>
  <unicode hex="006F"/>
  <anchor x="145.5" y="500" name="top"/>
  <outline>
    <contour>
      <point x="145.957" y="-5" type="qcurve" smooth="yes"/>
      <point x="203.204" y="-5"/>
      <point x="276" y="138.245"/>
      <point x="276" y="255.229" type="qcurve" smooth="yes"/>
      <point x="276" y="372.736"/>
      <point x="202.316" y="515"/>
      <point x="145.563" y="515" type="qcurve" smooth="yes"/>
      <point x="88.6837" y="515"/>
      <point x="15" y="372.736"/>
      <point x="15" y="255.545" type="qcurve" smooth="yes"/>
      <point x="15" y="138.245"/>
      <point x="88.6837" y="-5"/>
    </contour>
    <contour>
      <point x="145.563" y="24" type="qcurve" smooth="yes"/>
      <point x="102.158" y="24"/>
      <point x="51" y="150.107"/>
      <point x="51" y="255.131" type="qcurve" smooth="yes"/>
      <point x="51" y="359.893"/>
      <point x="102.158" y="486"/>
      <point x="145.521" y="486" type="qcurve" smooth="yes"/>
      <point x="188.842" y="486"/>
      <point x="240" y="359.893"/>
      <point x="240" y="255.131" type="qcurve" smooth="yes"/>
      <point x="240" y="150.107"/>
      <point x="188.842" y="24"/>
    </contour>
  </outline>
</glyph>
<glyph name="p" format="2">
  <advance width="300"/>
  <unicode hex="0070"/>
  <outline>
    <contour>
      <point x="30" y="-250" type="line"/>
      <point x="66" y="-250" type="line"/>
      <point x="66" y="48" type="line"/>
      <point x="98.4833" y="-5"/>
      <point x="154.264" y="-5" type="qcurve" smooth="yes"/>
      <point x="215" y="-5"/>
      <point x="285" y="116"/>
      <point x="285" y="249.314" type="qcurve" smooth="yes"/>
      <point x="285" y="370"/>
      <point x="225" y="515"/>
      <point x="161.21" y="515" type="qcurve" smooth="yes"/>
      <point x="130" y="515"/>
      <point x="77" y="479.19"/>
      <point x="62.6905" y="446" type="qcurve"/>
      <point x="52" y="500" type="line"/>
      <point x="30" y="500" type="line"/>
    </contour>
    <contour>
      <point x="150.73" y="24" type="qcurve" smooth="yes"/>
      <point x="111.876" y="24"/>
      <point x="66" y="101.295"/>
      <point x="66" y="166.887" type="qcurve"/>
      <point x="66" y="314.536" type="line"/>
      <point x="66" y="393"/>
      <point x="120" y="486"/>
      <point x="159.143" y="486" type="qcurve" smooth="yes"/>
      <point x="211" y="486"/>
      <point x="249" y="331.206"/>
      <point x="249" y="253.131" type="qcurve" smooth="yes"/>
      <point x="249" y="24"/>
    </contour>
  </outline>
</glyph>
<glyph name="q" format="2">
  <advance width="300"/>
  <unicode hex="0071"/>
  <outline>
    <contour>
      <point x="270" y="-250" type="line"/>
      <point x="234" y="-250" type="line"/>
      <point x="234" y="48" type="line"/>
      <point x="201.517" y="-5"/>
      <point x="145.736" y="-5" type="qcurve" smooth="yes"/>
      <point x="85" y="-5"/>
      <point x="15" y="116"/>
      <point x="15" y="249.314" type="qcurve" smooth="yes"/>
      <point x="15" y="370"/>
      <point x="75" y="515"/>
      <point x="138.79" y="515" type="qcurve" smooth="yes"/>
      <point x="170" y="515"/>
      <point x="223" y="479.19"/>
      <point x="237.31" y="446" type="qcurve"/>
      <point x="248" y="500" type="line"/>
      <point x="270" y="500" type="line"/>
    </contour>
    <contour>
      <point x="149.27" y="24" type="qcurve" smooth="yes"/>
      <point x="188.124" y="24"/>
      <point x="234" y="101.295"/>
      <point x="234" y="166.887" type="qcurve" smooth="yes"/>
      <point x="234" y="314.536" type="line" smooth="yes"/>
      <point x="234" y="393"/>
      <point x="180" y="486"/>
      <point x="140.857" y="486" type="qcurve" smooth="yes"/>
      <point x="89" y="486"/>
      <point x="51" y="331.206"/>
      <point x="51" y="253.131" type="qcurve" smooth="yes"/>
      <point x="51" y="24"/>
    </contour>
  </outline>
</glyph>
<glyph name="r" format="2">
  <advance width="163"/>
  <unicode hex="0072"/>
  <anchor x="92" y="500" name="top"/>
  <outline>
    <contour>
      <point x="30" y="0" type="line"/>
      <point x="66" y="0" type="line"/>
      <point x="66" y="317.105" type="line"/>
      <point x="66" y="471"/>
      <point x="149.065" y="471" type="qcurve"/>
      <point x="163" y="471" type="line"/>
      <point x="163" y="500" type="line"/>
      <point x="91.0488" y="500"/>
      <point x="72" y="446" type="qcurve"/>
      <point x="61" y="500" type="line"/>
      <point x="30" y="500" type="line"/>
    </contour>
  </outline>
</glyph>
<glyph name="t" format="2">
  <advance width="136"/>
  <unicode hex="0074"/>
  <anchor x="87.7479" y="699.698" name="top"/>
  <anchor x="87.7479" y="0" name="ced"/>
  <outline>
    <contour>
      <point x="47.8435" y="700" type="line"/>
      <point x="47.8435" y="566.77" type="line" smooth="yes"/>
      <point x="47.8435" y="500"/>
      <point x="0.495899" y="500" type="qcurve"/>
      <point x="0.495899" y="471" type="line"/>
      <point x="47.0685" y="471" type="line"/>
      <point x="47.0685" y="121.85" type="line" smooth="yes"/>
      <point x="47.0685" y="41.0843"/>
      <point x="85.1826" y="0"/>
      <point x="136" y="0" type="qcurve"/>
      <point x="136" y="29" type="line"/>
      <point x="100.095" y="29"/>
      <point x="83" y="61.1105"/>
      <point x="83" y="111.85" type="qcurve" smooth="yes"/>
      <point x="83" y="471" type="line"/>
      <point x="135" y="471" type="line"/>
      <point x="135" y="500" type="line"/>
      <point x="84" y="500" type="line"/>
      <point x="84" y="700" type="line"/>
    </contour>
  </outline>
</glyph>
<glyph name="u" format="2">
  <advance width="301"/>
  <unicode hex="0075"/>
  <anchor x="150.5" y="500" name="top"/>
  <outline>
    <contour>
      <point x="271" y="0" type="line"/>
      <point x="271" y="500" type="line"/>
      <point x="235" y="500" type="line"/>
      <point x="235" y="195.404" type="line" smooth="yes"/>
      <point x="235" y="108.961"/>
      <point x="194.688" y="24"/>
      <point x="147.657" y="24" type="qcurve" smooth="yes"/>
      <point x="100.11" y="24"/>
      <point x="66" y="108.961"/>
      <point x="66" y="196.101" type="qcurve" smooth="yes"/>
      <point x="66" y="500" type="line"/>
      <point x="30" y="500" type="line"/>
      <point x="30" y="168" type="line" smooth="yes"/>
      <point x="30" y="81"/>
      <point x="89.5476" y="-5"/>
      <point x="147.65" y="-5" type="qcurve" smooth="yes"/>
      <point x="212.548" y="-5"/>
      <point x="235" y="48" type="qcurve"/>
      <point x="235" y="0" type="line"/>
    </contour>
  </outline>
</glyph>
<glyph name="x" format="2">
  <advance width="275"/>
  <unicode hex="0078"/>
  <outline>
    <contour>
      <point x="234" y="0" type="line"/>
      <point x="270" y="0" type="line"/>
      <point x="163" y="254" type="line"/>
      <point x="255" y="500" type="line"/>
      <point x="219" y="500" type="line"/>
      <point x="136" y="266" type="line"/>
      <point x="56" y="500" type="line"/>
      <point x="20" y="500" type="line"/>
      <point x="109" y="251" type="line"/>
      <point x="5" y="0" type="line"/>
      <point x="41" y="0" type="line"/>
      <point x="136" y="239" type="line"/>
    </contour>
  </outline>
</glyph>
<glyph name="y" format="2">
  <advance width="286"/>
  <unicode hex="0079"/>
  <anchor x="163" y="500" name="top"/>
  <outline>
    <contour>
      <point x="7" y="-250" type="line"/>
      <point x="100.496" y="-250"/>
      <point x="155.931" y="-155.96"/>
      <point x="164.503" y="-111" type="qcurve" smooth="yes"/>
      <point x="281" y="500" type="line"/>
      <point x="245" y="500" type="line"/>
      <point x="153" y="-0.00479126" type="line"/>
      <point x="41" y="500" type="line"/>
      <point x="5" y="500" type="line"/>
      <point x="129" y="-58" type="line"/>
      <point x="118" y="-175.654"/>
      <point x="66" y="-221"/>
      <point x="7" y="-221" type="qcurve"/>
    </contour>
  </outline>
</glyph>
<glyph name="copyright" format="2">
  <advance width="796"/>
  <unicode hex="00A9"/>
  <outline>
    <contour>
      <point x="492" y="250" type="line"/>
      <point x="490.559" y="160.115"/>
      <point x="440.118" y="54"/>
      <point x="399.574" y="54" type="qcurve" smooth="yes"/>
      <point x="345" y="54"/>
      <point x="296" y="233.273"/>
      <point x="296" y="350.078" type="qcurve" smooth="yes"/>
      <point x="296" y="498.511"/>
      <point x="336.086" y="645"/>
      <point x="393.002" y="645" type="qcurve" smooth="yes"/>
      <point x="442.029" y="645"/>
      <point x="495" y="528.702"/>
      <point x="495" y="416" type="qcurve"/>
      <point x="531" y="416" type="line"/>
      <point x="531" y="535.733"/>
      <point x="470.875" y="666"/>
      <point x="398.55" y="666" type="qcurve" smooth="yes"/>
      <point x="318.383" y="666"/>
      <point x="260" y="502.089"/>
      <point x="260" y="333" type="qcurve" smooth="yes"/>
      <point x="260" y="198.331"/>
      <point x="320.039" y="33"/>
      <point x="395.74" y="33" type="qcurve" smooth="yes"/>
      <point x="459.26" y="33"/>
      <point x="528" y="149.643"/>
      <point x="528" y="250" type="qcurve"/>
    </contour>
    <contour>
      <point x="57" y="350" type="curve" smooth="yes"/>
      <point x="57" y="105.924"/>
      <point x="165.611" y="-58"/>
      <point x="397" y="-58" type="curve" smooth="yes"/>
      <point x="628.389" y="-58"/>
      <point x="737" y="105.924"/>
      <point x="737" y="350" type="curve" smooth="yes"/>
      <point x="737" y="593.126"/>
      <point x="628.389" y="758"/>
      <point x="397" y="758" type="curve" smooth="yes"/>
      <point x="165.611" y="758"/>
      <point x="57" y="593.126"/>
    </contour>
    <contour>
      <point x="93" y="350" type="curve" smooth="yes"/>
      <point x="93" y="572.794"/>
      <point x="189.163" y="734"/>
      <point x="397" y="734" type="curve" smooth="yes"/>
      <point x="604.837" y="734"/>
      <point x="701" y="572.794"/>
      <point x="701" y="350" type="curve" smooth="yes"/>
      <point x="701" y="126.346"/>
      <point x="604.837" y="-34"/>
      <point x="397" y="-34" type="curve" smooth="yes"/>
      <point x="189.163" y="-34"/>
      <point x="93" y="126.346"/>
    </contour>
  </outline>
</glyph>
<glyph name="registered" format="2">
  <advance width="724"/>
  <unicode hex="00AE"/>
  <anchor x="156.481" y="700" name="top"/>
  <outline>
    <contour>
      <point x="190" y="200" type="line"/>
      <point x="226" y="200" type="line"/>
      <point x="226" y="382" type="line"/>
      <point x="294.727" y="382"/>
      <point x="346" y="346.193"/>
      <point x="346" y="272.853" type="qcurve" smooth="yes"/>
      <point x="346" y="251.382"/>
      <point x="349.738" y="200"/>
      <point x="359.09" y="200" type="qcurve" smooth="yes"/>
      <point x="400" y="200" type="line"/>
      <point x="400" y="221.045" type="line"/>
      <point x="390" y="228.761"/>
      <point x="382" y="259.584"/>
      <point x="382" y="282.821" type="qcurve" smooth="yes"/>
      <point x="382" y="329.2"/>
      <point x="355.564" y="376.497"/>
      <point x="316" y="385" type="qcurve"/>
      <point x="357.499" y="395.765"/>
      <point x="391" y="459.64"/>
      <point x="391" y="503.799" type="qcurve" smooth="yes"/>
      <point x="391" y="557.842"/>
      <point x="340.695" y="640"/>
      <point x="289.464" y="640" type="qcurve" smooth="yes"/>
      <point x="190" y="640" type="line"/>
    </contour>
    <contour>
      <point x="226" y="411" type="line"/>
      <point x="226" y="611" type="line"/>
      <point x="266.109" y="611" type="line" smooth="yes"/>
      <point x="304.05" y="611"/>
      <point x="355" y="558.026"/>
      <point x="355" y="512.383" type="qcurve" smooth="yes"/>
      <point x="355" y="470.644"/>
      <point x="311.639" y="411"/>
      <point x="266.109" y="411" type="qcurve" smooth="yes"/>
    </contour>
    <contour>
      <point x="-3" y="414" type="curve" smooth="yes"/>
      <point x="-3" y="212.996"/>
      <point x="89.6389" y="78"/>
      <point x="287" y="78" type="curve" smooth="yes"/>
      <point x="484.361" y="78"/>
      <point x="577" y="212.996"/>
      <point x="577" y="414" type="curve" smooth="yes"/>
      <point x="577" y="614.221"/>
      <point x="484.361" y="750"/>
      <point x="287" y="750" type="curve" smooth="yes"/>
      <point x="89.6389" y="750"/>
      <point x="-3" y="614.221"/>
    </contour>
    <contour>
      <point x="13" y="414" type="curve" smooth="yes"/>
      <point x="13" y="600.822"/>
      <point x="99.6735" y="736"/>
      <point x="287" y="736" type="curve" smooth="yes"/>
      <point x="474.327" y="736"/>
      <point x="561" y="600.822"/>
      <point x="561" y="414" type="curve" smooth="yes"/>
      <point x="561" y="226.457"/>
      <point x="474.327" y="92"/>
      <point x="287" y="92" type="curve" smooth="yes"/>
      <point x="99.6735" y="92"/>
      <point x="13" y="226.457"/>
    </contour>
  </outline>
</glyph>
<glyph name="acute" format="2">
  <advance width="150"/>
  <unicode hex="00B4"/>
  <outline>
    <contour>
      <point x="55.3382" y="750" type="line"/>
      <point x="100" y="890" type="line"/>
      <point x="63.7867" y="890" type="line"/>
      <point x="33.1166" y="750" type="line"/>
    </contour>
  </outline>
</glyph>
<glyph name="cedilla" format="2">
  <advance width="351"/>
  <unicode hex="00B8"/>
  <anchor x="150" y="0" name="_ced"/>
  <outline>
    <contour>
      <point x="132" y="-74" type="line"/>
      <point x="237" y="-74"/>
      <point x="237" y="-151.53" type="qcurve" smooth="yes"/>
      <point x="237" y="-229.802"/>
      <point x="132" y="-221" type="qcurve"/>
      <point x="132" y="-250" type="line"/>
      <point x="272.118" y="-259.109"/>
      <point x="273.122" y="-149.751" type="qcurve" smooth="yes"/>
      <point x="274.001" y="-54.1137"/>
      <point x="168" y="-45" type="qcurve"/>
      <point x="168" y="0" type="line"/>
      <point x="132" y="0" type="line"/>
    </contour>
  </outline>
</glyph>
<glyph name="Agrave" format="2">
  <advance width="283"/>
  <unicode hex="00C0"/>
  <anchor x="138.456" y="700" name="top"/>
  <outline>
    <contour>
      <point x="268" y="0" type="line"/>
      <point x="169.017" y="700" type="line"/>
      <point x="112.983" y="700" type="line"/>
      <point x="15" y="0" type="line"/>
      <point x="51" y="0" type="line"/>
      <point x="79" y="209" type="line"/>
      <point x="204" y="209" type="line"/>
      <point x="232" y="0" type="line"/>
    </contour>
    <contour>
      <point x="200" y="238" type="line"/>
      <point x="83" y="238" type="line"/>
      <point x="141" y="671" type="line"/>
    </contour>
    <contour>
      <point x="121.823" y="750" type="line"/>
      <point x="145" y="750" type="line"/>
      <point x="98.4357" y="890" type="line"/>
      <point x="62.7926" y="890" type="line"/>
    </contour>
  </outline>
</glyph>
<glyph name="Edieresis" format="2">
  <advance width="252"/>
  <unicode hex="00CB"/>
  <anchor x="168.5" y="700" name="top"/>
  <anchor x="229" y="0" name="ogonek"/>
  <anchor x="175.5" y="0" name="ced"/>
  <outline>
    <contour>
      <point x="40" y="0" type="line"/>
      <point x="247" y="0" type="line"/>
      <point x="247" y="29" type="line"/>
      <point x="76" y="29" type="line"/>
      <point x="76" y="342" type="line"/>
      <point x="200" y="342" type="line"/>
      <point x="200" y="371" type="line"/>
      <point x="76" y="371" type="line"/>
      <point x="76" y="671" type="line"/>
      <point x="240" y="671" type="line"/>
      <point x="240" y="700" type="line"/>
      <point x="40" y="700" type="line"/>
    </contour>
    <contour>
      <point x="25.5" y="780.964" type="qcurve" smooth="yes"/>
      <point x="25.5" y="750.224"/>
      <point x="54.7685" y="750.224" type="qcurve" smooth="yes"/>
      <point x="83.5" y="750.224"/>
      <point x="83.5" y="780.964" type="qcurve" smooth="yes"/>
      <point x="83.5" y="811.224"/>
      <point x="54.7685" y="811.224" type="qcurve" smooth="yes"/>
      <point x="25.5" y="811.224"/>
    </contour>
    <contour>
      <point x="232.947" y="780.964" type="qcurve" smooth="yes"/>
      <point x="232.947" y="750.224"/>
      <point x="262.215" y="750.224" type="qcurve" smooth="yes"/>
      <point x="290.947" y="750.224"/>
      <point x="290.947" y="780.964" type="qcurve" smooth="yes"/>
      <point x="290.947" y="811.224"/>
      <point x="262.215" y="811.224" type="qcurve" smooth="yes"/>
      <point x="232.947" y="811.224"/>
    </contour>
  </outline>
</glyph>
<glyph name="Igrave" format="2">
  <advance width="116"/>
  <unicode hex="00CC"/>
  <anchor x="58" y="700" name="top"/>
  <anchor x="53" y="0" name="ced"/>
  <outline>
    <contour>
      <point x="40" y="0" type="line"/>
      <point x="76" y="0" type="line"/>
      <point x="76" y="700" type="line"/>
      <point x="40" y="700" type="line"/>
    </contour>
    <contour>
      <point x="47.9952" y="750" type="line"/>
      <point x="71.1726" y="750" type="line"/>
      <point x="24.6082" y="890" type="line"/>
      <point x="-11.0349" y="890" type="line"/>
    </contour>
  </outline>
</glyph>
<glyph name="Iacute" format="2">
  <advance width="116"/>
  <unicode hex="00CD"/>
  <anchor x="58" y="700" name="top"/>
  <anchor x="53" y="0" name="ced"/>
  <outline>
    <contour>
      <point x="40" y="0" type="line"/>
      <point x="76" y="0" type="line"/>
      <point x="76" y="700" type="line"/>
      <point x="40" y="700" type="line"/>
    </contour>
    <contour>
      <point x="67.0434" y="750" type="line"/>
      <point x="111.705" y="890" type="line"/>
      <point x="75.4919" y="890" type="line"/>
      <point x="44.8219" y="750" type="line"/>
    </contour>
  </outline>
</glyph>
<glyph name="Icircumflex" format="2">
  <advance width="116"/>
  <unicode hex="00CE"/>
  <anchor x="58" y="700" name="top"/>
  <anchor x="53" y="0" name="ced"/>
  <outline>
    <contour>
      <point x="40" y="0" type="line"/>
      <point x="76" y="0" type="line"/>
      <point x="76" y="700" type="line"/>
      <point x="40" y="700" type="line"/>
    </contour>
    <contour>
      <point x="-3" y="750" type="line"/>
      <point x="58" y="861" type="line"/>
      <point x="119" y="750" type="line"/>
      <point x="155" y="750" type="line"/>
      <point x="79.6538" y="884" type="line"/>
      <point x="36.3462" y="884" type="line"/>
      <point x="-39" y="750" type="line"/>
    </contour>
  </outline>
</glyph>
<glyph name="Idieresis" format="2">
  <advance width="116"/>
  <unicode hex="00CF"/>
  <anchor x="58" y="700" name="top"/>
  <anchor x="53" y="0" name="ced"/>
  <outline>
    <contour>
      <point x="40" y="0" type="line"/>
      <point x="76" y="0" type="line"/>
      <point x="76" y="700" type="line"/>
      <point x="40" y="700" type="line"/>
    </contour>
    <contour>
      <point x="-75" y="780.964" type="qcurve" smooth="yes"/>
      <point x="-75" y="750.224"/>
      <point x="-45.7315" y="750.224" type="qcurve" smooth="yes"/>
      <point x="-17" y="750.224"/>
      <point x="-17" y="780.964" type="qcurve" smooth="yes"/>
      <point x="-17" y="811.224"/>
      <point x="-45.7315" y="811.224" type="qcurve" smooth="yes"/>
      <point x="-75" y="811.224"/>
    </contour>
    <contour>
      <point x="132.447" y="780.964" type="qcurve" smooth="yes"/>
      <point x="132.447" y="750.224"/>
      <point x="161.715" y="750.224" type="qcurve" smooth="yes"/>
      <point x="190.447" y="750.224"/>
      <point x="190.447" y="780.964" type="qcurve" smooth="yes"/>
      <point x="190.447" y="811.224"/>
      <point x="161.715" y="811.224" type="qcurve" smooth="yes"/>
      <point x="132.447" y="811.224"/>
    </contour>
  </outline>
</glyph>
<glyph name="Odieresis" format="2">
  <advance width="327"/>
  <unicode hex="00D6"/>
  <anchor x="163.5" y="700" name="top"/>
  <outline>
    <contour>
      <point x="163.923" y="-15" type="qcurve" smooth="yes"/>
      <point x="235.038" y="-15"/>
      <point x="307" y="192"/>
      <point x="307" y="347.154" type="qcurve" smooth="yes"/>
      <point x="307" y="514"/>
      <point x="223.316" y="721"/>
      <point x="163.923" y="721" type="qcurve" smooth="yes"/>
      <point x="104.53" y="721"/>
      <point x="20" y="514"/>
      <point x="20" y="347.217" type="qcurve" smooth="yes"/>
      <point x="20" y="192"/>
      <point x="92.8083" y="-15"/>
    </contour>
    <contour>
      <point x="164.251" y="14" type="qcurve" smooth="yes"/>
      <point x="104.548" y="14"/>
      <point x="56" y="210.144"/>
      <point x="56" y="346.689" type="qcurve" smooth="yes"/>
      <point x="56" y="495.856"/>
      <point x="114.335" y="692"/>
      <point x="164.197" y="692" type="qcurve" smooth="yes"/>
      <point x="213.963" y="692"/>
      <point x="271" y="496.99"/>
      <point x="271" y="346.414" type="qcurve" smooth="yes"/>
      <point x="271" y="209.01"/>
      <point x="223.839" y="14"/>
    </contour>
    <contour>
      <point x="30.5" y="780.964" type="qcurve" smooth="yes"/>
      <point x="30.5" y="750.224"/>
      <point x="59.7685" y="750.224" type="qcurve" smooth="yes"/>
      <point x="88.5" y="750.224"/>
      <point x="88.5" y="780.964" type="qcurve" smooth="yes"/>
      <point x="88.5" y="811.224"/>
      <point x="59.7685" y="811.224" type="qcurve" smooth="yes"/>
      <point x="30.5" y="811.224"/>
    </contour>
    <contour>
      <point x="237.947" y="780.964" type="qcurve" smooth="yes"/>
      <point x="237.947" y="750.224"/>
      <point x="267.215" y="750.224" type="qcurve" smooth="yes"/>
      <point x="295.947" y="750.224"/>
      <point x="295.947" y="780.964" type="qcurve" smooth="yes"/>
      <point x="295.947" y="811.224"/>
      <point x="267.215" y="811.224" type="qcurve" smooth="yes"/>
      <point x="237.947" y="811.224"/>
    </contour>
  </outline>
</glyph>
<glyph name="Ugrave" format="2">
  <advance width="357"/>
  <unicode hex="00D9"/>
  <anchor x="198.5" y="700" name="top"/>
  <anchor x="198.5" y="0.298" name="ced"/>
  <outline>
    <contour>
      <point x="40" y="160" type="line"/>
      <point x="40" y="73.1902"/>
      <point x="114.032" y="-21"/>
      <point x="178.985" y="-21" type="qcurve" smooth="yes"/>
      <point x="244.23" y="-21"/>
      <point x="317" y="73.1902"/>
      <point x="317" y="160" type="qcurve"/>
      <point x="317" y="700" type="line"/>
      <point x="281" y="700" type="line"/>
      <point x="281" y="160" type="line" smooth="yes"/>
      <point x="281" y="7.98685"/>
      <point x="179.006" y="7.99125" type="qcurve" smooth="yes"/>
      <point x="76" y="7.98685"/>
      <point x="76" y="160" type="qcurve" smooth="yes"/>
      <point x="76" y="700" type="line"/>
      <point x="40" y="700" type="line"/>
    </contour>
    <contour>
      <point x="234.323" y="750" type="line"/>
      <point x="257.5" y="750" type="line"/>
      <point x="210.936" y="890" type="line"/>
      <point x="175.293" y="890" type="line"/>
    </contour>
  </outline>
</glyph>
<glyph name="Thorn" format="2">
  <advance width="335"/>
  <unicode hex="00DE"/>
  <outline>
    <contour>
      <point x="40.7306" y="0" type="line"/>
      <point x="76.7306" y="0" type="line"/>
      <point x="76.7306" y="162" type="line"/>
      <point x="142.235" y="162" type="line"/>
      <point x="314.731" y="162"/>
      <point x="314.731" y="358.8" type="qcurve" smooth="yes"/>
      <point x="314.731" y="550"/>
      <point x="155.336" y="550" type="qcurve"/>
      <point x="76.7306" y="550" type="line"/>
      <point x="76.7306" y="700" type="line"/>
      <point x="40.7306" y="700" type="line"/>
    </contour>
    <contour>
      <point x="76.7306" y="191" type="line"/>
      <point x="76.7306" y="521" type="line"/>
      <point x="137.099" y="521" type="line"/>
      <point x="278.731" y="521"/>
      <point x="278.731" y="352.832" type="qcurve" smooth="yes"/>
      <point x="278.731" y="191"/>
      <point x="143.744" y="191" type="qcurve"/>
    </contour>
  </outline>
</glyph>
<glyph name="aring" format="2">
  <advance width="303"/>
  <unicode hex="00E5"/>
  <anchor x="160" y="500" name="top"/>
  <outline>
    <contour>
      <point x="132.611" y="-5" type="qcurve" smooth="yes"/>
      <point x="164.156" y="-5"/>
      <point x="220.812" y="22"/>
      <point x="237" y="54" type="qcurve"/>
      <point x="237" y="0" type="line"/>
      <point x="273" y="0" type="line"/>
      <point x="273" y="337" type="line" smooth="yes"/>
      <point x="273" y="429"/>
      <point x="222.604" y="515"/>
      <point x="161.849" y="515" type="qcurve" smooth="yes"/>
      <point x="101.726" y="515"/>
      <point x="37" y="431"/>
      <point x="37" y="330" type="qcurve"/>
      <point x="73" y="330" type="line"/>
      <point x="73" y="413.379"/>
      <point x="119.588" y="486"/>
      <point x="164.179" y="486" type="qcurve" smooth="yes"/>
      <point x="209.491" y="486"/>
      <point x="237" y="414"/>
      <point x="237" y="326" type="qcurve"/>
      <point x="126.584" y="272"/>
      <point x="15" y="184"/>
      <point x="15" y="122.21" type="qcurve" smooth="yes"/>
      <point x="15" y="75"/>
      <point x="78.5938" y="-5"/>
    </contour>
    <contour>
      <point x="135.528" y="24" type="qcurve" smooth="yes"/>
      <point x="94.0413" y="24"/>
      <point x="51" y="88.1755"/>
      <point x="51" y="120.871" type="qcurve" smooth="yes"/>
      <point x="51" y="175.825"/>
      <point x="175.512" y="263.547"/>
      <point x="237" y="297" type="qcurve"/>
      <point x="237" y="151.787" type="line" smooth="yes"/>
      <point x="237" y="84.9894"/>
      <point x="175.512" y="24"/>
    </contour>
    <contour>
      <point x="99" y="620.551" type="qcurve" smooth="yes"/>
      <point x="99" y="550"/>
      <point x="161.109" y="550" type="qcurve" smooth="yes"/>
      <point x="221" y="550"/>
      <point x="221" y="620.551" type="qcurve" smooth="yes"/>
      <point x="221" y="690"/>
      <point x="161.109" y="690" type="qcurve" smooth="yes"/>
      <point x="99" y="690"/>
    </contour>
    <contour>
      <point x="117.869" y="620.5" type="qcurve" smooth="yes"/>
      <point x="117.869" y="669.893"/>
      <point x="160" y="669.893" type="qcurve" smooth="yes"/>
      <point x="202.131" y="669.893"/>
      <point x="202.131" y="620.5" type="qcurve" smooth="yes"/>
      <point x="202.131" y="571.107"/>
      <point x="160" y="571.107" type="qcurve" smooth="yes"/>
      <point x="117.869" y="571.107"/>
    </contour>
  </outline>
</glyph>
<glyph name="ecircumflex" format="2">
  <advance width="290"/>
  <unicode hex="00EA"/>
  <anchor x="165" y="500" name="top"/>
  <anchor x="165" y="10" name="ced"/>
  <anchor x="180.208" y="10" name="ogonek"/>
  <outline>
    <contour>
      <point x="147.076" y="-5" type="qcurve" smooth="yes"/>
      <point x="195.109" y="-5"/>
      <point x="266.794" y="85.6532"/>
      <point x="273" y="159" type="qcurve"/>
      <point x="235" y="159" type="line"/>
      <point x="235" y="102.019"/>
      <point x="184.548" y="24"/>
      <point x="147.518" y="24" type="qcurve" smooth="yes"/>
      <point x="101.452" y="24"/>
      <point x="51" y="138.201"/>
      <point x="51" y="223" type="qcurve"/>
      <point x="275" y="223" type="line"/>
      <point x="275" y="301.059" type="line" smooth="yes"/>
      <point x="275" y="392.654"/>
      <point x="206.678" y="515"/>
      <point x="148.198" y="515" type="qcurve" smooth="yes"/>
      <point x="86.0667" y="515"/>
      <point x="15" y="376.207"/>
      <point x="15" y="257.557" type="qcurve" smooth="yes"/>
      <point x="15" y="138.024"/>
      <point x="86.8705" y="-5"/>
    </contour>
    <contour>
      <point x="51" y="252" type="line"/>
      <point x="51" y="337.647"/>
      <point x="99.4688" y="486"/>
      <point x="152.021" y="486" type="qcurve" smooth="yes"/>
      <point x="202.281" y="486"/>
      <point x="239" y="337.647"/>
      <point x="239" y="252" type="qcurve"/>
    </contour>
    <contour>
      <point x="104" y="550" type="line"/>
      <point x="165" y="661" type="line"/>
      <point x="226" y="550" type="line"/>
      <point x="262" y="550" type="line"/>
      <point x="186.654" y="684" type="line"/>
      <point x="143.346" y="684" type="line"/>
      <point x="68" y="550" type="line"/>
    </contour>
  </outline>
</glyph>
<glyph name="edieresis" format="2">
  <advance width="290"/>
  <unicode hex="00EB"/>
  <anchor x="165" y="500" name="top"/>
  <anchor x="165" y="10" name="ced"/>
  <anchor x="180.208" y="10" name="ogonek"/>
  <outline>
    <contour>
      <point x="147.076" y="-5" type="qcurve" smooth="yes"/>
      <point x="195.109" y="-5"/>
      <point x="266.794" y="85.6532"/>
      <point x="273" y="159" type="qcurve"/>
      <point x="235" y="159" type="line"/>
      <point x="235" y="102.019"/>
      <point x="184.548" y="24"/>
      <point x="147.518" y="24" type="qcurve" smooth="yes"/>
      <point x="101.452" y="24"/>
      <point x="51" y="138.201"/>
      <point x="51" y="223" type="qcurve"/>
      <point x="275" y="223" type="line"/>
      <point x="275" y="301.059" type="line" smooth="yes"/>
      <point x="275" y="392.654"/>
      <point x="206.678" y="515"/>
      <point x="148.198" y="515" type="qcurve" smooth="yes"/>
      <point x="86.0667" y="515"/>
      <point x="15" y="376.207"/>
      <point x="15" y="257.557" type="qcurve" smooth="yes"/>
      <point x="15" y="138.024"/>
      <point x="86.8705" y="-5"/>
    </contour>
    <contour>
      <point x="51" y="252" type="line"/>
      <point x="51" y="337.647"/>
      <point x="99.4688" y="486"/>
      <point x="152.021" y="486" type="qcurve" smooth="yes"/>
      <point x="202.281" y="486"/>
      <point x="239" y="337.647"/>
      <point x="239" y="252" type="qcurve"/>
    </contour>
    <contour>
      <point x="22" y="580.964" type="qcurve" smooth="yes"/>
      <point x="22" y="550.224"/>
      <point x="51.2685" y="550.224" type="qcurve" smooth="yes"/>
      <point x="80" y="550.224"/>
      <point x="80" y="580.964" type="qcurve" smooth="yes"/>
      <point x="80" y="611.224"/>
      <point x="51.2685" y="611.224" type="qcurve" smooth="yes"/>
      <point x="22" y="611.224"/>
    </contour>
    <contour>
      <point x="229.447" y="580.964" type="qcurve" smooth="yes"/>
      <point x="229.447" y="550.224"/>
      <point x="258.715" y="550.224" type="qcurve" smooth="yes"/>
      <point x="287.447" y="550.224"/>
      <point x="287.447" y="580.964" type="qcurve" smooth="yes"/>
      <point x="287.447" y="611.224"/>
      <point x="258.715" y="611.224" type="qcurve" smooth="yes"/>
      <point x="229.447" y="611.224"/>
    </contour>
  </outline>
</glyph>
<glyph name="iacute" format="2">
  <advance width="96"/>
  <unicode hex="00ED"/>
  <anchor x="48" y="500" name="top"/>
  <anchor x="23" y="0" name="ced"/>
  <anchor x="18" y="0" name="ogonek"/>
  <outline>
    <contour>
      <point x="30" y="0" type="line"/>
      <point x="66" y="0" type="line"/>
      <point x="66" y="500" type="line"/>
      <point x="30" y="500" type="line"/>
    </contour>
    <contour>
      <point x="57.0434" y="550" type="line"/>
      <point x="101.705" y="690" type="line"/>
      <point x="65.4919" y="690" type="line"/>
      <point x="34.8219" y="550" type="line"/>
    </contour>
  </outline>
</glyph>
<glyph name="icircumflex" format="2">
  <advance width="96"/>
  <unicode hex="00EE"/>
  <anchor x="48" y="500" name="top"/>
  <anchor x="23" y="0" name="ced"/>
  <anchor x="18" y="0" name="ogonek"/>
  <outline>
    <contour>
      <point x="30" y="0" type="line"/>
      <point x="66" y="0" type="line"/>
      <point x="66" y="500" type="line"/>
      <point x="30" y="500" type="line"/>
    </contour>
    <contour>
      <point x="-13" y="580" type="line"/>
      <point x="48" y="691" type="line"/>
      <point x="109" y="580" type="line"/>
      <point x="145" y="580" type="line"/>
      <point x="69.6538" y="714" type="line"/>
      <point x="26.3462" y="714" type="line"/>
      <point x="-49" y="580" type="line"/>
    </contour>
  </outline>
</glyph>
<glyph name="idieresis" format="2">
  <advance width="96"/>
  <unicode hex="00EF"/>
  <anchor x="48" y="500" name="top"/>
  <anchor x="23" y="0" name="ced"/>
  <anchor x="18" y="0" name="ogonek"/>
  <outline>
    <contour>
      <point x="30" y="0" type="line"/>
      <point x="66" y="0" type="line"/>
      <point x="66" y="500" type="line"/>
      <point x="30" y="500" type="line"/>
    </contour>
    <contour>
      <point x="-84.7233" y="630.964" type="qcurve" smooth="yes"/>
      <point x="-84.7233" y="600.224"/>
      <point x="-55.4548" y="600.224" type="qcurve" smooth="yes"/>
      <point x="-26.7233" y="600.224"/>
      <point x="-26.7233" y="630.964" type="qcurve" smooth="yes"/>
      <point x="-26.7233" y="661.224"/>
      <point x="-55.4548" y="661.224" type="qcurve" smooth="yes"/>
      <point x="-84.7233" y="661.224"/>
    </contour>
    <contour>
      <point x="122.723" y="630.964" type="qcurve" smooth="yes"/>
      <point x="122.723" y="600.224"/>
      <point x="151.992" y="600.224" type="qcurve" smooth="yes"/>
      <point x="180.723" y="600.224"/>
      <point x="180.723" y="630.964" type="qcurve" smooth="yes"/>
      <point x="180.723" y="661.224"/>
      <point x="151.992" y="661.224" type="qcurve" smooth="yes"/>
      <point x="122.723" y="661.224"/>
    </contour>
  </outline>
</glyph>
<glyph name="eth" format="2">
  <advance width="297"/>
  <unicode hex="00F0"/>
  <outline>
    <contour>
      <point x="140.747" y="685" type="line"/>
      <point x="249" y="528.584"/>
      <point x="252" y="374" type="qcurve"/>
      <point x="223.811" y="451"/>
      <point x="149.179" y="451" type="qcurve" smooth="yes"/>
      <point x="15" y="451"/>
      <point x="15" y="214.084" type="qcurve" smooth="yes"/>
      <point x="15" y="-15"/>
      <point x="141.993" y="-15" type="qcurve" smooth="yes"/>
      <point x="288" y="-15"/>
      <point x="288" y="283.362" type="qcurve" smooth="yes"/>
      <point x="288" y="524.064"/>
      <point x="160" y="699.961" type="qcurve"/>
    </contour>
    <contour>
      <point x="149.771" y="14" type="qcurve" smooth="yes"/>
      <point x="51" y="14"/>
      <point x="51" y="218.509" type="qcurve" smooth="yes"/>
      <point x="51" y="422"/>
      <point x="148.087" y="422" type="qcurve" smooth="yes"/>
      <point x="198" y="422"/>
      <point x="249" y="310.365"/>
      <point x="249" y="212.147" type="qcurve" smooth="yes"/>
      <point x="249" y="14"/>
    </contour>
    <contour>
      <point x="82" y="547" type="line"/>
      <point x="94" y="520" type="line"/>
      <point x="292" y="611" type="line"/>
      <point x="281" y="638" type="line"/>
    </contour>
  </outline>
</glyph>
<glyph name="otilde" format="2">
  <advance width="291"/>
  <unicode hex="00F5"/>
  <anchor x="165.5" y="500" name="top"/>
  <outline>
    <contour>
      <point x="145.957" y="-5" type="qcurve" smooth="yes"/>
      <point x="203.204" y="-5"/>
      <point x="276" y="138.245"/>
      <point x="276" y="255.229" type="qcurve" smooth="yes"/>
      <point x="276" y="372.736"/>
      <point x="202.316" y="515"/>
      <point x="145.563" y="515" type="qcurve" smooth="yes"/>
      <point x="88.6837" y="515"/>
      <point x="15" y="372.736"/>
      <point x="15" y="255.545" type="qcurve" smooth="yes"/>
      <point x="15" y="138.245"/>
      <point x="88.6837" y="-5"/>
    </contour>
    <contour>
      <point x="145.563" y="24" type="qcurve" smooth="yes"/>
      <point x="102.158" y="24"/>
      <point x="51" y="150.107"/>
      <point x="51" y="255.131" type="qcurve" smooth="yes"/>
      <point x="51" y="359.893"/>
      <point x="102.158" y="486"/>
      <point x="145.521" y="486" type="qcurve" smooth="yes"/>
      <point x="188.842" y="486"/>
      <point x="240" y="359.893"/>
      <point x="240" y="255.131" type="qcurve" smooth="yes"/>
      <point x="240" y="150.107"/>
      <point x="188.842" y="24"/>
    </contour>
    <contour>
      <point x="76.5" y="550" type="line"/>
      <point x="76.5" y="620.663"/>
      <point x="96.6043" y="620.663" type="qcurve" smooth="yes"/>
      <point x="112.816" y="620.663"/>
      <point x="156.026" y="550"/>
      <point x="186.351" y="550" type="qcurve" smooth="yes"/>
      <point x="221.512" y="550"/>
      <point x="262.372" y="600.081"/>
      <point x="262.5" y="662.105" type="qcurve"/>
      <point x="213.5" y="662.105" type="line"/>
      <point x="213.5" y="589.337"/>
      <point x="192.274" y="589.337" type="qcurve" smooth="yes"/>
      <point x="175.69" y="589.337"/>
      <point x="129.592" y="660"/>
      <point x="99.4909" y="660" type="qcurve" smooth="yes"/>
      <point x="64.6567" y="660"/>
      <point x="27.5" y="610.341"/>
      <point x="27.5" y="550" type="qcurve"/>
    </contour>
  </outline>
</glyph>
<glyph name="ucircumflex" format="2">
  <advance width="301"/>
  <unicode hex="00FB"/>
  <anchor x="170.5" y="500" name="top"/>
  <outline>
    <contour>
      <point x="271" y="0" type="line"/>
      <point x="271" y="500" type="line"/>
      <point x="235" y="500" type="line"/>
      <point x="235" y="195.404" type="line" smooth="yes"/>
      <point x="235" y="108.961"/>
      <point x="194.688" y="24"/>
      <point x="147.657" y="24" type="qcurve" smooth="yes"/>
      <point x="100.11" y="24"/>
      <point x="66" y="108.961"/>
      <point x="66" y="196.101" type="qcurve" smooth="yes"/>
      <point x="66" y="500" type="line"/>
      <point x="30" y="500" type="line"/>
      <point x="30" y="168" type="line" smooth="yes"/>
      <point x="30" y="81"/>
      <point x="89.5476" y="-5"/>
      <point x="147.65" y="-5" type="qcurve" smooth="yes"/>
      <point x="212.548" y="-5"/>
      <point x="235" y="48" type="qcurve"/>
      <point x="235" y="0" type="line"/>
    </contour>
    <contour>
      <point x="109.5" y="550" type="line"/>
      <point x="170.5" y="661" type="line"/>
      <point x="231.5" y="550" type="line"/>
      <point x="267.5" y="550" type="line"/>
      <point x="192.154" y="684" type="line"/>
      <point x="148.846" y="684" type="line"/>
      <point x="73.5" y="550" type="line"/>
    </contour>
  </outline>
</glyph>
<glyph name="yacute" format="2">
  <advance width="286"/>
  <unicode hex="00FD"/>
  <anchor x="163" y="500" name="top"/>
  <outline>
    <contour>
      <point x="7" y="-250" type="line"/>
      <point x="100.496" y="-250"/>
      <point x="155.931" y="-155.96"/>
      <point x="164.503" y="-111" type="qcurve" smooth="yes"/>
      <point x="281" y="500" type="line"/>
      <point x="245" y="500" type="line"/>
      <point x="153" y="-0.00479126" type="line"/>
      <point x="41" y="500" type="line"/>
      <point x="5" y="500" type="line"/>
      <point x="129" y="-58" type="line"/>
      <point x="118" y="-175.654"/>
      <point x="66" y="-221"/>
      <point x="7" y="-221" type="qcurve"/>
    </contour>
    <contour>
      <point x="172.043" y="550" type="line"/>
      <point x="216.705" y="690" type="line"/>
      <point x="180.492" y="690" type="line"/>
      <point x="149.822" y="550" type="line"/>
    </contour>
  </outline>
</glyph>
<glyph name="ydieresis" format="2">
  <advance width="286"/>
  <unicode hex="00FF"/>
  <anchor x="163" y="500" name="top"/>
  <outline>
    <contour>
      <point x="7" y="-250" type="line"/>
      <point x="100.496" y="-250"/>
      <point x="155.931" y="-155.96"/>
      <point x="164.503" y="-111" type="qcurve" smooth="yes"/>
      <point x="281" y="500" type="line"/>
      <point x="245" y="500" type="line"/>
      <point x="153" y="-0.00479126" type="line"/>
      <point x="41" y="500" type="line"/>
      <point x="5" y="500" type="line"/>
      <point x="129" y="-58" type="line"/>
      <point x="118" y="-175.654"/>
      <point x="66" y="-221"/>
      <point x="7" y="-221" type="qcurve"/>
    </contour>
    <contour>
      <point x="20" y="580.964" type="qcurve" smooth="yes"/>
      <point x="20" y="550.224"/>
      <point x="49.2685" y="550.224" type="qcurve" smooth="yes"/>
      <point x="78" y="550.224"/>
      <point x="78" y="580.964" type="qcurve" smooth="yes"/>
      <point x="78" y="611.224"/>
      <point x="49.2685" y="611.224" type="qcurve" smooth="yes"/>
      <point x="20" y="611.224"/>
    </contour>
    <contour>
      <point x="227.447" y="580.964" type="qcurve" smooth="yes"/>
      <point x="227.447" y="550.224"/>
      <point x="256.715" y="550.224" type="qcurve" smooth="yes"/>
      <point x="285.447" y="550.224"/>
      <point x="285.447" y="580.964" type="qcurve" smooth="yes"/>
      <point x="285.447" y="611.224"/>
      <point x="256.715" y="611.224" type="qcurve" smooth="yes"/>
      <point x="227.447" y="611.224"/>
    </contour>
  </outline>
</glyph>
<glyph name="aogonek" format="2">
  <advance width="303"/>
  <unicode hex="0105"/>
  <anchor x="162" y="500" name="top"/>
  <anchor x="255.012" y="0" name="ogonek"/>
  <outline>
    <contour>
      <point x="132.611" y="-5" type="qcurve" smooth="yes"/>
      <point x="164.156" y="-5"/>
      <point x="220.812" y="22"/>
      <point x="237" y="54" type="qcurve"/>
      <point x="237" y="0" type="line"/>
      <point x="273" y="0" type="line"/>
      <point x="273" y="337" type="line" smooth="yes"/>
      <point x="273" y="429"/>
      <point x="222.604" y="515"/>
      <point x="161.849" y="515" type="qcurve" smooth="yes"/>
      <point x="101.726" y="515"/>
      <point x="37" y="431"/>
      <point x="37" y="330" type="qcurve"/>
      <point x="73" y="330" type="line"/>
      <point x="73" y="413.379"/>
      <point x="119.588" y="486"/>
      <point x="164.179" y="486" type="qcurve" smooth="yes"/>
      <point x="209.491" y="486"/>
      <point x="237" y="414"/>
      <point x="237" y="326" type="qcurve"/>
      <point x="126.584" y="272"/>
      <point x="15" y="184"/>
      <point x="15" y="122.21" type="qcurve" smooth="yes"/>
      <point x="15" y="75"/>
      <point x="78.5938" y="-5"/>
    </contour>
    <contour>
      <point x="135.528" y="24" type="qcurve" smooth="yes"/>
      <point x="94.0413" y="24"/>
      <point x="51" y="88.1755"/>
      <point x="51" y="120.871" type="qcurve" smooth="yes"/>
      <point x="51" y="175.825"/>
      <point x="175.512" y="263.547"/>
      <point x="237" y="297" type="qcurve"/>
      <point x="237" y="151.787" type="line" smooth="yes"/>
      <point x="237" y="84.9894"/>
      <point x="175.512" y="24"/>
    </contour>
    <contour>
      <point x="237" y="-0.2175" type="line"/>
      <point x="209.629" y="-35.755" type="line" smooth="yes"/>
      <point x="161" y="-98.8936"/>
      <point x="161" y="-162.327" type="qcurve" smooth="yes"/>
      <point x="161" y="-259.218"/>
      <point x="269" y="-259.218" type="qcurve"/>
      <point x="269" y="-240.218" type="line"/>
      <point x="197" y="-220.218"/>
      <point x="197" y="-158.146" type="qcurve" smooth="yes"/>
      <point x="197" y="-109.116"/>
      <point x="243.624" y="-42.3096" type="qcurve" smooth="yes"/>
      <point x="273" y="-0.2175" type="line"/>
    </contour>
  </outline>
</glyph>
<glyph name="cdotaccent" format="2">
  <advance width="290"/>
  <unicode hex="010B"/>
  <anchor x="171" y="0" name="ced"/>
  <anchor x="172.57" y="500" name="top"/>
  <outline>
    <contour>
      <point x="148.645" y="-5" type="qcurve" smooth="yes"/>
      <point x="204.656" y="-5"/>
      <point x="273" y="112.706"/>
      <point x="273" y="182" type="qcurve"/>
      <point x="237" y="182" type="line"/>
      <point x="237" y="117.812"/>
      <point x="190" y="24"/>
      <point x="148.67" y="24" type="qcurve" smooth="yes"/>
      <point x="99.7143" y="24"/>
      <point x="51" y="154.821"/>
      <point x="51" y="255.354" type="qcurve" smooth="yes"/>
      <point x="51" y="355.179"/>
      <point x="99.0219" y="486"/>
      <point x="148.432" y="486" type="qcurve" smooth="yes"/>
      <point x="185" y="486"/>
      <point x="239" y="411.487"/>
      <point x="239" y="330" type="qcurve"/>
      <point x="275" y="330" type="line"/>
      <point x="275" y="411.048"/>
      <point x="205.729" y="515"/>
      <point x="151.773" y="515" type="qcurve" smooth="yes"/>
      <point x="88.6667" y="515"/>
      <point x="15" y="372.736"/>
      <point x="15" y="254.765" type="qcurve" smooth="yes"/>
      <point x="15" y="138.245"/>
      <point x="86.8591" y="-5"/>
    </contour>
    <contour>
      <point x="122.57" y="569.654" type="qcurve" smooth="yes"/>
      <point x="122.57" y="550"/>
      <point x="140.57" y="550" type="qcurve" smooth="yes"/>
      <point x="158.57" y="550"/>
      <point x="158.57" y="569.654" type="qcurve" smooth="yes"/>
      <point x="158.57" y="589"/>
      <point x="140.57" y="589" type="qcurve" smooth="yes"/>
      <point x="122.57" y="589"/>
    </contour>
  </outline>
</glyph>
<glyph name="ccaron" format="2">
  <advance width="290"/>
  <unicode hex="010D"/>
  <anchor x="171" y="0" name="ced"/>
  <anchor x="172.57" y="500" name="top"/>
  <outline>
    <contour>
      <point x="148.645" y="-5" type="qcurve" smooth="yes"/>
      <point x="204.656" y="-5"/>
      <point x="273" y="112.706"/>
      <point x="273" y="182" type="qcurve"/>
      <point x="237" y="182" type="line"/>
      <point x="237" y="117.812"/>
      <point x="190" y="24"/>
      <point x="148.67" y="24" type="qcurve" smooth="yes"/>
      <point x="99.7143" y="24"/>
      <point x="51" y="154.821"/>
      <point x="51" y="255.354" type="qcurve" smooth="yes"/>
      <point x="51" y="355.179"/>
      <point x="99.0219" y="486"/>
      <point x="148.432" y="486" type="qcurve" smooth="yes"/>
      <point x="185" y="486"/>
      <point x="239" y="411.487"/>
      <point x="239" y="330" type="qcurve"/>
      <point x="275" y="330" type="line"/>
      <point x="275" y="411.048"/>
      <point x="205.729" y="515"/>
      <point x="151.773" y="515" type="qcurve" smooth="yes"/>
      <point x="88.6667" y="515"/>
      <point x="15" y="372.736"/>
      <point x="15" y="254.765" type="qcurve" smooth="yes"/>
      <point x="15" y="138.245"/>
      <point x="86.8591" y="-5"/>
    </contour>
    <contour>
      <point x="194.224" y="549.998" type="line"/>
      <point x="269.57" y="683.998" type="line"/>
      <point x="233.57" y="683.998" type="line"/>
      <point x="172.57" y="572.998" type="line"/>
      <point x="111.57" y="683.998" type="line"/>
      <point x="75.5702" y="683.998" type="line"/>
      <point x="150.916" y="549.998" type="line"/>
    </contour>
  </outline>
</glyph>
<glyph name="Ecaron" format="2">
  <advance width="252"/>
  <unicode hex="011A"/>
  <anchor x="168.5" y="700" name="top"/>
  <anchor x="229" y="0" name="ogonek"/>
  <anchor x="175.5" y="0" name="ced"/>
  <outline>
    <contour>
      <point x="40" y="0" type="line"/>
      <point x="247" y="0" type="line"/>
      <point x="247" y="29" type="line"/>
      <point x="76" y="29" type="line"/>
      <point x="76" y="342" type="line"/>
      <point x="200" y="342" type="line"/>
      <point x="200" y="371" type="line"/>
      <point x="76" y="371" type="line"/>
      <point x="76" y="671" type="line"/>
      <point x="240" y="671" type="line"/>
      <point x="240" y="700" type="line"/>
      <point x="40" y="700" type="line"/>
    </contour>
    <contour>
      <point x="190.154" y="749.998" type="line"/>
      <point x="265.5" y="883.998" type="line"/>
      <point x="229.5" y="883.998" type="line"/>
      <point x="168.5" y="772.998" type="line"/>
      <point x="107.5" y="883.998" type="line"/>
      <point x="71.5" y="883.998" type="line"/>
      <point x="146.846" y="749.998" type="line"/>
    </contour>
  </outline>
</glyph>
<glyph name="Gbreve" format="2">
  <advance width="318"/>
  <unicode hex="011E"/>
  <anchor x="179" y="700" name="top"/>
  <outline>
    <contour>
      <point x="167.846" y="-15" type="qcurve" smooth="yes"/>
      <point x="237.805" y="-15"/>
      <point x="262" y="79" type="qcurve"/>
      <point x="270" y="0" type="line"/>
      <point x="298" y="0" type="line"/>
      <point x="298" y="372" type="line"/>
      <point x="149" y="372" type="line"/>
      <point x="149" y="343" type="line"/>
      <point x="262" y="343" type="line"/>
      <point x="262" y="149.077"/>
      <point x="206.973" y="14"/>
      <point x="162.601" y="14" type="qcurve" smooth="yes"/>
      <point x="106.795" y="14"/>
      <point x="56" y="220.348"/>
      <point x="56" y="371.992" type="qcurve" smooth="yes"/>
      <point x="56" y="523.067"/>
      <point x="104.512" y="692"/>
      <point x="161" y="692" type="qcurve" smooth="yes"/>
      <point x="210.455" y="692"/>
      <point x="255" y="558.64"/>
      <point x="255" y="430" type="qcurve"/>
      <point x="291" y="430" type="line"/>
      <point x="291" y="571"/>
      <point x="231.698" y="721"/>
      <point x="159.323" y="721" type="qcurve" smooth="yes"/>
      <point x="78.9042" y="721"/>
      <point x="20" y="532"/>
      <point x="20" y="365.55" type="qcurve" smooth="yes"/>
      <point x="20" y="177"/>
      <point x="96.278" y="-15"/>
    </contour>
    <contour>
      <point x="158.145" y="750" type="qcurve" smooth="yes"/>
      <point x="275" y="750"/>
      <point x="275" y="904" type="qcurve"/>
      <point x="239" y="904" type="line"/>
      <point x="239" y="779"/>
      <point x="158.145" y="779" type="qcurve" smooth="yes"/>
      <point x="79" y="779"/>
      <point x="79" y="904" type="qcurve"/>
      <point x="43" y="904" type="line"/>
      <point x="43" y="750"/>
    </contour>
  </outline>
</glyph>
<glyph name="Gcommaaccent" format="2">
  <advance width="318"/>
  <unicode hex="0122"/>
  <anchor x="179" y="700" name="top"/>
  <outline>
    <contour>
      <point x="167.846" y="-15" type="qcurve" smooth="yes"/>
      <point x="237.805" y="-15"/>
      <point x="262" y="79" type="qcurve"/>
      <point x="270" y="0" type="line"/>
      <point x="298" y="0" type="line"/>
      <point x="298" y="372" type="line"/>
      <point x="149" y="372" type="line"/>
      <point x="149" y="343" type="line"/>
      <point x="262" y="343" type="line"/>
      <point x="262" y="149.077"/>
      <point x="206.973" y="14"/>
      <point x="162.601" y="14" type="qcurve" smooth="yes"/>
      <point x="106.795" y="14"/>
      <point x="56" y="220.348"/>
      <point x="56" y="371.992" type="qcurve" smooth="yes"/>
      <point x="56" y="523.067"/>
      <point x="104.512" y="692"/>
      <point x="161" y="692" type="qcurve" smooth="yes"/>
      <point x="210.455" y="692"/>
      <point x="255" y="558.64"/>
      <point x="255" y="430" type="qcurve"/>
      <point x="291" y="430" type="line"/>
      <point x="291" y="571"/>
      <point x="231.698" y="721"/>
      <point x="159.323" y="721" type="qcurve" smooth="yes"/>
      <point x="78.9042" y="721"/>
      <point x="20" y="532"/>
      <point x="20" y="365.55" type="qcurve" smooth="yes"/>
      <point x="20" y="177"/>
      <point x="96.278" y="-15"/>
    </contour>
    <contour>
      <point x="129" y="-121.754" type="qcurve" smooth="yes"/>
      <point x="129" y="-156.475"/>
      <point x="157" y="-156.475" type="qcurve"/>
      <point x="133" y="-241.475" type="line"/>
      <point x="147" y="-241.475" type="line"/>
      <point x="189" y="-162.475"/>
      <point x="189" y="-124.402" type="qcurve" smooth="yes"/>
      <point x="189" y="-90.4754"/>
      <point x="159.279" y="-90.4754" type="qcurve" smooth="yes"/>
      <point x="146.4" y="-90.4754"/>
      <point x="129" y="-104.249"/>
    </contour>
  </outline>
</glyph>
<glyph name="Hbar" format="2">
  <advance width="327"/>
  <unicode hex="0126"/>
  <outline>
    <contour>
      <point x="251" y="0" type="line"/>
      <point x="287" y="0" type="line"/>
      <point x="287" y="700" type="line"/>
      <point x="251" y="700" type="line"/>
      <point x="251" y="372" type="line"/>
      <point x="76" y="372" type="line"/>
      <point x="76" y="700" type="line"/>
      <point x="40" y="700" type="line"/>
      <point x="40" y="0" type="line"/>
      <point x="76" y="0" type="line"/>
      <point x="76" y="343" type="line"/>
      <point x="251" y="343" type="line"/>
    </contour>
    <contour>
      <point x="-20" y="484.953" type="line"/>
      <point x="347.002" y="484.953" type="line"/>
      <point x="347.002" y="513.953" type="line"/>
      <point x="-20" y="513.953" type="line"/>
    </contour>
  </outline>
</glyph>
<glyph name="Imacron" format="2">
  <advance width="116"/>
  <unicode hex="012A"/>
  <anchor x="83" y="700" name="top"/>
  <anchor x="83" y="0" name="ced"/>
  <outline>
    <contour>
      <point x="40" y="0" type="line"/>
      <point x="76" y="0" type="line"/>
      <point x="76" y="700" type="line"/>
      <point x="40" y="700" type="line"/>
    </contour>
    <contour>
      <point x="-6.5" y="750" type="line"/>
      <point x="173.5" y="750" type="line"/>
      <point x="173.5" y="779" type="line"/>
      <point x="-6.5" y="779" type="line"/>
    </contour>
  </outline>
</glyph>
<glyph name="Iogonek" format="2">
  <advance width="116"/>
  <unicode hex="012E"/>
  <anchor x="58" y="700" name="top"/>
  <anchor x="53" y="0" name="ced"/>
  <outline>
    <contour>
      <point x="40" y="0" type="line"/>
      <point x="76" y="0" type="line"/>
      <point x="76" y="700" type="line"/>
      <point x="40" y="700" type="line"/>
    </contour>
    <contour>
      <point x="40" y="0" type="line"/>
      <point x="12.6291" y="-35.5375" type="line" smooth="yes"/>
      <point x="-36" y="-98.6761"/>
      <point x="-36" y="-162.109" type="qcurve" smooth="yes"/>
      <point x="-36" y="-259"/>
      <point x="72" y="-259" type="qcurve"/>
      <point x="72" y="-240" type="line"/>
      <point x="0" y="-220"/>
      <point x="0" y="-157.928" type="qcurve" smooth="yes"/>
      <point x="0" y="-108.898"/>
      <point x="46.624" y="-42.0921" type="qcurve" smooth="yes"/>
      <point x="76" y="0" type="line"/>
    </contour>
  </outline>
</glyph>
<glyph name="iogonek" format="2">
  <advance width="118"/>
  <unicode hex="012F"/>
  <anchor x="59.9936" y="0" name="ced"/>
  <anchor x="59" y="0" name="ogonek"/>
  <outline>
    <contour>
      <point x="43" y="0" type="line"/>
      <point x="79" y="0" type="line"/>
      <point x="79" y="500" type="line"/>
      <point x="43" y="500" type="line"/>
    </contour>
    <contour>
      <point x="59" y="639" type="qcurve" smooth="yes"/>
      <point x="71.2105" y="639"/>
      <point x="88" y="653.904"/>
      <point x="88" y="669.5" type="qcurve" smooth="yes"/>
      <point x="88" y="685.096"/>
      <point x="71.2105" y="700"/>
      <point x="59" y="700" type="qcurve" smooth="yes"/>
      <point x="46.7895" y="700"/>
      <point x="30" y="685.096"/>
      <point x="30" y="669.5" type="qcurve" smooth="yes"/>
      <point x="30" y="653.904"/>
      <point x="46.7895" y="639"/>
    </contour>
    <contour>
      <point x="43" y="0" type="line"/>
      <point x="15.6291" y="-35.5375" type="line" smooth="yes"/>
      <point x="-33" y="-98.6761"/>
      <point x="-33" y="-162.109" type="qcurve" smooth="yes"/>
      <point x="-33" y="-259"/>
      <point x="75" y="-259" type="qcurve"/>
      <point x="75" y="-240" type="line"/>
      <point x="3" y="-220"/>
      <point x="3" y="-157.928" type="qcurve" smooth="yes"/>
      <point x="3" y="-108.898"/>
      <point x="49.624" y="-42.0921" type="qcurve" smooth="yes"/>
      <point x="79" y="0" type="line"/>
    </contour>
  </outline>
</glyph>
<glyph name="Idotaccent" format="2">
  <advance width="116"/>
  <unicode hex="0130"/>
  <anchor x="83" y="700" name="top"/>
  <anchor x="83" y="0" name="ced"/>
  <outline>
    <contour>
      <point x="40" y="0" type="line"/>
      <point x="76" y="0" type="line"/>
      <point x="76" y="700" type="line"/>
      <point x="40" y="700" type="line"/>
    </contour>
    <contour>
      <point x="33" y="769.654" type="qcurve" smooth="yes"/>
      <point x="33" y="750"/>
      <point x="51" y="750" type="qcurve" smooth="yes"/>
      <point x="69" y="750"/>
      <point x="69" y="769.654" type="qcurve" smooth="yes"/>
      <point x="69" y="789"/>
      <point x="51" y="789" type="qcurve" smooth="yes"/>
      <point x="33" y="789"/>
    </contour>
  </outline>
</glyph>
<glyph name="kcommaaccent" format="2">
  <advance width="240"/>
  <unicode hex="0137"/>
  <outline>
    <contour>
      <point x="30.4398" y="0" type="line"/>
      <point x="67.4508" y="0" type="line"/>
      <point x="67.4508" y="182.031" type="line"/>
      <point x="83.0443" y="212.084" type="line"/>
      <point x="197.357" y="0" type="line"/>
      <point x="233.31" y="0" type="line"/>
      <point x="101.657" y="237.23" type="line"/>
      <point x="234.939" y="480.22" type="line"/>
      <point x="199.166" y="480.22" type="line"/>
      <point x="67.4508" y="235.057" type="line"/>
      <point x="67.4508" y="689.011" type="line"/>
      <point x="30.4398" y="689.011" type="line"/>
    </contour>
    <contour>
      <point x="100.5" y="-121.754" type="qcurve" smooth="yes"/>
      <point x="100.5" y="-156.475"/>
      <point x="128.5" y="-156.475" type="qcurve"/>
      <point x="104.5" y="-241.475" type="line"/>
      <point x="118.5" y="-241.475" type="line"/>
      <point x="160.5" y="-162.475"/>
      <point x="160.5" y="-124.402" type="qcurve" smooth="yes"/>
      <point x="160.5" y="-90.4754"/>
      <point x="130.779" y="-90.4754" type="qcurve" smooth="yes"/>
      <point x="117.9" y="-90.4754"/>
      <point x="100.5" y="-104.249"/>
    </contour>
  </outline>
</glyph>
<glyph name="lacute" format="2">
  <advance width="136"/>
  <unicode hex="013A"/>
  <anchor x="73" y="750" name="top"/>
  <outline>
    <contour>
      <point x="30" y="750" type="line"/>
      <point x="30" y="130.817" type="line" smooth="yes"/>
      <point x="30" y="56.9144"/>
      <point x="59.5556" y="-8"/>
      <point x="106" y="-8" type="qcurve"/>
      <point x="106" y="21" type="line"/>
      <point x="80" y="19.0029"/>
      <point x="66" y="47.9603"/>
      <point x="66" y="92.8941" type="qcurve" smooth="yes"/>
      <point x="66" y="750" type="line"/>
    </contour>
    <contour>
      <point x="82.0434" y="800" type="line"/>
      <point x="126.705" y="940" type="line"/>
      <point x="90.492" y="940" type="line"/>
      <point x="59.8219" y="800" type="line"/>
    </contour>
  </outline>
</glyph>
<glyph name="Lcommaaccent" format="2">
  <advance width="226"/>
  <unicode hex="013B"/>
  <anchor x="83" y="700" name="top"/>
  <outline>
    <contour>
      <point x="40" y="0" type="line"/>
      <point x="221" y="0" type="line"/>
      <point x="221" y="29" type="line"/>
      <point x="76" y="29" type="line"/>
      <point x="76" y="700" type="line"/>
      <point x="40" y="700" type="line"/>
    </contour>
    <contour>
      <point x="88" y="-121.754" type="qcurve" smooth="yes"/>
      <point x="88" y="-156.475"/>
      <point x="116" y="-156.475" type="qcurve"/>
      <point x="92" y="-241.475" type="line"/>
      <point x="106" y="-241.475" type="line"/>
      <point x="148" y="-162.475"/>
      <point x="148" y="-124.402" type="qcurve" smooth="yes"/>
      <point x="148" y="-90.4754"/>
      <point x="118.279" y="-90.4754" type="qcurve" smooth="yes"/>
      <point x="105.4" y="-90.4754"/>
      <point x="88" y="-104.249"/>
    </contour>
  </outline>
</glyph>
<glyph name="Lcaron" format="2">
  <advance width="226"/>
  <unicode hex="013D"/>
  <anchor x="83" y="700" name="top"/>
  <outline>
    <contour>
      <point x="40" y="0" type="line"/>
      <point x="221" y="0" type="line"/>
      <point x="221" y="29" type="line"/>
      <point x="76" y="29" type="line"/>
      <point x="76" y="700" type="line"/>
      <point x="40" y="700" type="line"/>
    </contour>
    <contour>
      <point x="156.132" y="669.672" type="qcurve" smooth="yes"/>
      <point x="156.132" y="634.951"/>
      <point x="184.132" y="634.951" type="qcurve"/>
      <point x="160.132" y="549.951" type="line"/>
      <point x="174.132" y="549.951" type="line"/>
      <point x="216.132" y="628.951"/>
      <point x="216.132" y="667.024" type="qcurve" smooth="yes"/>
      <point x="216.132" y="700.951"/>
      <point x="186.411" y="700.951" type="qcurve" smooth="yes"/>
      <point x="173.532" y="700.951"/>
      <point x="156.132" y="687.177"/>
    </contour>
  </outline>
</glyph>
<glyph name="lslash" format="2">
  <advance width="376"/>
  <unicode hex="0142"/>
  <anchor x="198" y="750" name="top"/>
  <outline>
    <contour>
      <point x="45.4366" y="270.444" type="line"/>
      <point x="345.939" y="443.944" type="line"/>
      <point x="331.439" y="469.058" type="line"/>
      <point x="30.9366" y="295.558" type="line"/>
    </contour>
    <contour>
      <point x="155" y="750" type="line"/>
      <point x="155" y="136.535" type="line" smooth="yes"/>
      <point x="155" y="63.3149"/>
      <point x="184.556" y="-1"/>
      <point x="231" y="-1" type="qcurve"/>
      <point x="231" y="28" type="line"/>
      <point x="209" y="27.0221"/>
      <point x="191" y="54.7014"/>
      <point x="191" y="99.2038" type="qcurve" smooth="yes"/>
      <point x="191" y="750" type="line"/>
    </contour>
  </outline>
</glyph>
<glyph name="dotlessj" format="2">
  <advance width="135"/>
  <unicode hex="0237"/>
  <anchor x="69" y="500" name="top"/>
  <anchor x="180" y="0" name="ced"/>
  <outline>
    <contour>
      <point x="-15" y="-250" type="line"/>
      <point x="87" y="-250"/>
      <point x="87" y="-65" type="qcurve" smooth="yes"/>
      <point x="87" y="500" type="line"/>
      <point x="51" y="500" type="line"/>
      <point x="51" y="-65" type="line" smooth="yes"/>
      <point x="51" y="-221"/>
      <point x="-15" y="-221" type="qcurve"/>
    </contour>
  </outline>
</glyph>
<glyph name="circumflex" format="2">
  <advance width="316"/>
  <unicode hex="02C6"/>
  <anchor x="158" y="700" name="_top"/>
  <outline>
    <contour>
      <point x="61" y="750" type="line"/>
      <point x="136.346" y="884" type="line"/>
      <point x="179.654" y="884" type="line"/>
      <point x="255" y="750" type="line"/>
      <point x="219" y="750" type="line"/>
      <point x="158" y="861" type="line"/>
      <point x="97" y="750" type="line"/>
    </contour>
  </outline>
</glyph>
<glyph name="caron" format="2">
  <advance width="316"/>
  <unicode hex="02C7"/>
  <anchor x="158" y="700" name="_top"/>
  <outline>
    <contour>
      <point x="179.654" y="750" type="line"/>
      <point x="255" y="884" type="line"/>
      <point x="219" y="884" type="line"/>
      <point x="158" y="773" type="line"/>
      <point x="97" y="884" type="line"/>
      <point x="61" y="884" type="line"/>
      <point x="136.346" y="750" type="line"/>
    </contour>
  </outline>
</glyph>
<glyph name="dotaccent" format="2">
  <advance width="36"/>
  <unicode hex="02D9"/>
  <anchor x="18" y="700" name="_top"/>
  <outline>
    <contour>
      <point x="0" y="769.654" type="qcurve" smooth="yes"/>
      <point x="0" y="750"/>
      <point x="18" y="750" type="qcurve" smooth="yes"/>
      <point x="36" y="750"/>
      <point x="36" y="769.654" type="qcurve" smooth="yes"/>
      <point x="36" y="789"/>
      <point x="18" y="789" type="qcurve" smooth="yes"/>
      <point x="0" y="789"/>
    </contour>
  </outline>
</glyph>
<glyph name="ogonek" format="2">
  <advance width="150"/>
  <unicode hex="02DB"/>
  <anchor x="86" y="0.2175" name="_ogonek"/>
  <outline>
    <contour>
      <point x="106" y="0" type="line"/>
      <point x="76.624" y="-42.0921" type="line" smooth="yes"/>
      <point x="30" y="-108.898"/>
      <point x="30" y="-157.928" type="qcurve" smooth="yes"/>
      <point x="30" y="-220"/>
      <point x="102" y="-240" type="qcurve"/>
      <point x="102" y="-259" type="line"/>
      <point x="-6" y="-259"/>
      <point x="-6" y="-162.109" type="qcurve" smooth="yes"/>
      <point x="-6" y="-98.6761"/>
      <point x="42.6291" y="-35.5375" type="qcurve" smooth="yes"/>
      <point x="70" y="0" type="line"/>
    </contour>
  </outline>
</glyph>
<glyph name="emdash" format="2">
  <advance width="694"/>
  <unicode hex="2014"/>
  <outline>
    <contour>
      <point x="0" y="315" type="line"/>
      <point x="694" y="315" type="line"/>
      <point x="694" y="344" type="line"/>
      <point x="0" y="344" type="line"/>
    </contour>
  </outline>
</glyph>
<glyph name="quoteleft" format="2">
  <advance width="120"/>
  <unicode hex="2018"/>
  <anchor x="60" y="500" name="_top"/>
  <outline>
    <contour>
      <point x="90" y="581.379" type="qcurve" smooth="yes"/>
      <point x="90" y="615"/>
      <point x="62" y="615" type="qcurve"/>
      <point x="81" y="700" type="line"/>
      <point x="67" y="700" type="line"/>
      <point x="30" y="619"/>
      <point x="30" y="583.016" type="qcurve" smooth="yes"/>
      <point x="30" y="550"/>
      <point x="59.7208" y="550" type="qcurve" smooth="yes"/>
      <point x="72.6" y="550"/>
      <point x="90" y="563.565"/>
    </contour>
  </outline>
</glyph>
<glyph name="trademark" format="2">
  <advance width="544"/>
  <unicode hex="2122"/>
  <anchor x="113" y="700" name="top"/>
  <anchor x="113" y="0.4974" name="ced"/>
  <outline>
    <contour>
      <point x="95" y="300" type="line"/>
      <point x="131" y="300" type="line"/>
      <point x="131" y="721" type="line"/>
      <point x="226" y="721" type="line"/>
      <point x="226" y="750" type="line"/>
      <point x="0" y="750" type="line"/>
      <point x="0" y="721" type="line"/>
      <point x="95" y="721" type="line"/>
    </contour>
    <contour>
      <point x="507" y="300.35" type="line"/>
      <point x="543.4" y="300.35" type="line"/>
      <point x="543.4" y="750" type="line"/>
      <point x="481" y="750" type="line"/>
      <point x="401" y="329" type="line"/>
      <point x="320" y="750" type="line"/>
      <point x="262.45" y="750" type="line"/>
      <point x="262.45" y="300.35" type="line"/>
      <point x="297.8" y="300.35" type="line"/>
      <point x="297.8" y="722.632" type="line"/>
      <point x="370" y="300" type="line"/>
      <point x="432" y="300" type="line"/>
      <point x="507" y="722.632" type="line"/>
    </contour>
  </outline>
</glyph>
<glyph name="f_f" format="2">
  <advance width="324"/>
  <unicode hex="FB00"/>
  <outline>
    <contour>
      <point x="47" y="0" type="line"/>
      <point x="83" y="0" type="line"/>
      <point x="83" y="471" type="line"/>
      <point x="175" y="471" type="line"/>
      <point x="175" y="500" type="line"/>
      <point x="84" y="500" type="line"/>
      <point x="84" y="595.548"/>
      <point x="108.649" y="686"/>
      <point x="157" y="686" type="qcurve"/>
      <point x="157" y="715" type="line"/>
      <point x="93.9308" y="715"/>
      <point x="48" y="630.303"/>
      <point x="48" y="554.453" type="qcurve" smooth="yes"/>
      <point x="48" y="500"/>
      <point x="0" y="500" type="qcurve"/>
      <point x="0" y="471" type="line"/>
      <point x="47" y="471" type="line"/>
    </contour>
    <contour>
      <point x="214" y="0" type="line"/>
      <point x="250" y="0" type="line"/>
      <point x="250" y="471" type="line"/>
      <point x="312" y="471" type="line"/>
      <point x="312" y="500" type="line"/>
      <point x="251" y="500" type="line"/>
      <point x="251" y="595.548"/>
      <point x="275.649" y="686"/>
      <point x="324" y="686" type="qcurve"/>
      <point x="324" y="715" type="line"/>
      <point x="260.931" y="715"/>
      <point x="215" y="630.303"/>
      <point x="215" y="554.453" type="qcurve" smooth="yes"/>
      <point x="215" y="500"/>
      <point x="167" y="500" type="qcurve"/>
      <point x="167" y="471" type="line"/>
      <point x="214" y="471" type="line"/>
    </contour>
  </outline>
</glyph>
<glyph name="fi" format="2">
  <advance width="285"/>
  <unicode hex="FB01"/>
  <anchor x="171" y="0" name="ced"/>
  <anchor x="169" y="0" name="ogonek"/>
  <outline>
    <contour>
      <point x="47" y="0" type="line"/>
      <point x="83" y="0" type="line"/>
      <point x="83" y="471" type="line"/>
      <point x="215" y="471" type="line"/>
      <point x="215" y="500" type="line"/>
      <point x="84" y="500" type="line"/>
      <point x="84" y="595.548"/>
      <point x="108.649" y="686"/>
      <point x="157" y="686" type="qcurve"/>
      <point x="157" y="715" type="line"/>
      <point x="93.9308" y="715"/>
      <point x="48" y="630.303"/>
      <point x="48" y="554.453" type="qcurve" smooth="yes"/>
      <point x="48" y="500"/>
      <point x="0" y="500" type="qcurve"/>
      <point x="0" y="471" type="line"/>
      <point x="47" y="471" type="line"/>
    </contour>
    <contour>
      <point x="210" y="0" type="line"/>
      <point x="246" y="0" type="line"/>
      <point x="246" y="500" type="line"/>
      <point x="210" y="500" type="line"/>
    </contour>
    <contour>
      <point x="226" y="639" type="qcurve" smooth="yes"/>
      <point x="238.211" y="639"/>
      <point x="255" y="653.904"/>
      <point x="255" y="669.5" type="qcurve" smooth="yes"/>
      <point x="255" y="685.096"/>
      <point x="238.211" y="700"/>
      <point x="226" y="700" type="qcurve" smooth="yes"/>
      <point x="213.789" y="700"/>
      <point x="197" y="685.096"/>
      <point x="197" y="669.5" type="qcurve" smooth="yes"/>
      <point x="197" y="653.904"/>
      <point x="213.789" y="639"/>
    </contour>
  </outline>
</glyph>
<glyph name="f_f_i" format="2">
  <advance width="452"/>
  <unicode hex="FB03"/>
  <anchor x="338" y="0" name="ced"/>
  <anchor x="336" y="0" name="ogonek"/>
  <outline>
    <contour>
      <point x="47" y="0" type="line"/>
      <point x="83" y="0" type="line"/>
      <point x="83" y="471" type="line"/>
      <point x="185" y="471" type="line"/>
      <point x="185" y="500" type="line"/>
      <point x="84" y="500" type="line"/>
      <point x="84" y="595.548"/>
      <point x="108.649" y="686"/>
      <point x="157" y="686" type="qcurve"/>
      <point x="157" y="715" type="line"/>
      <point x="93.9308" y="715"/>
      <point x="48" y="630.303"/>
      <point x="48" y="554.453" type="qcurve" smooth="yes"/>
      <point x="48" y="500"/>
      <point x="0" y="500" type="qcurve"/>
      <point x="0" y="471" type="line"/>
      <point x="47" y="471" type="line"/>
    </contour>
    <contour>
      <point x="214" y="0" type="line"/>
      <point x="250" y="0" type="line"/>
      <point x="250" y="471" type="line"/>
      <point x="382" y="471" type="line"/>
      <point x="382" y="500" type="line"/>
      <point x="251" y="500" type="line"/>
      <point x="251" y="595.548"/>
      <point x="275.649" y="686"/>
      <point x="324" y="686" type="qcurve"/>
      <point x="324" y="715" type="line"/>
      <point x="260.931" y="715"/>
      <point x="215" y="630.303"/>
      <point x="215" y="554.453" type="qcurve" smooth="yes"/>
      <point x="215" y="500"/>
      <point x="167" y="500" type="qcurve"/>
      <point x="167" y="471" type="line"/>
      <point x="214" y="471" type="line"/>
    </contour>
    <contour>
      <point x="377" y="0" type="line"/>
      <point x="413" y="0" type="line"/>
      <point x="413" y="500" type="line"/>
      <point x="377" y="500" type="line"/>
    </contour>
    <contour>
      <point x="393" y="639" type="qcurve" smooth="yes"/>
      <point x="405.211" y="639"/>
      <point x="422" y="653.904"/>
      <point x="422" y="669.5" type="qcurve" smooth="yes"/>
      <point x="422" y="685.096"/>
      <point x="405.211" y="700"/>
      <point x="393" y="700" type="qcurve" smooth="yes"/>
      <point x="380.789" y="700"/>
      <point x="364" y="685.096"/>
      <point x="364" y="669.5" type="qcurve" smooth="yes"/>
      <point x="364" y="653.904"/>
      <point x="380.789" y="639"/>
    </contour>
  </outline>
</glyph>
